<?xml version="1.0" encoding="UTF-8"?>
<!DOCTYPE svg PUBLIC "-//W3C//DTD SVG 1.1//EN" "http://www.w3.org/Graphics/SVG/1.1/DTD/svg11.dtd">
<!-- Creator: CorelDRAW X7 -->
<svg xmlns="http://www.w3.org/2000/svg" xml:space="preserve" width="11in" height="8.5in" version="1.1" style="shape-rendering:geometricPrecision; text-rendering:geometricPrecision; image-rendering:optimizeQuality; fill-rule:evenodd; clip-rule:evenodd"
viewBox="0 0 11000 8500"
 xmlns:xlink="http://www.w3.org/1999/xlink">
 <defs>
  <style type="text/css">
   <![CDATA[
    .fil0 {fill:#FF6600}
   ]]>
  </style>
 </defs>
 <g id="Layer_x0020_1">
  <metadata id="CorelCorpID_0Corel-Layer"/>
  <path class="fil0" d="M5500 3635c340,0 616,276 616,616 0,323 -247,587 -563,614l0 -383 122 -222c34,-63 33,-138 -3,-200 -35,-61 -98,-98 -168,-99 -3,0 -5,0 -8,0 -70,1 -133,38 -168,99 -36,62 -37,137 -3,200l122 222 0 383c-316,-27 -563,-291 -563,-614 0,-340 276,-616 616,-616zm0 602c-45,0 -82,-36 -82,-81 0,-45 37,-82 82,-82 45,0 82,37 82,82 0,45 -37,81 -82,81z"/>
 </g>
</svg>
