<?xml version="1.0" encoding="UTF-8"?>
<!DOCTYPE svg PUBLIC "-//W3C//DTD SVG 1.1//EN" "http://www.w3.org/Graphics/SVG/1.1/DTD/svg11.dtd">
<!-- Creator: CorelDRAW X7 -->
<svg xmlns="http://www.w3.org/2000/svg" xml:space="preserve" width="11in" height="8.5in" version="1.1" style="shape-rendering:geometricPrecision; text-rendering:geometricPrecision; image-rendering:optimizeQuality; fill-rule:evenodd; clip-rule:evenodd"
viewBox="0 0 11000 8500"
 xmlns:xlink="http://www.w3.org/1999/xlink">
 <defs>
  <style type="text/css">
   <![CDATA[
    .fil0 {fill:#3E2357;fill-rule:nonzero}
   ]]>
  </style>
 </defs>
 <g id="Layer_x0020_1">
  <metadata id="CorelCorpID_0Corel-Layer"/>
  <path class="fil0" d="M3860 4386l-1 -383 -73 0 -141 238 -144 -238 -73 0 0 383 83 0 0 -225 112 185 40 0 113 -190 1 230 83 0zm295 -294l-83 200 -83 -200 -88 0 128 297 -1 2c-12,27 -25,37 -49,37 -17,0 -35,-7 -48,-19l-31 61c19,17 52,27 82,27 53,0 94,-21 122,-93l133 -312 -82 0zm194 294l88 0 0 -311 123 0 0 -72 -334 0 0 72 123 0 0 311zm327 -255l0 -39 -81 0 0 294 85 0 0 -139c0,-56 32,-82 79,-82 6,0 12,1 19,1l0 -79c-46,0 -81,15 -102,44zm270 -44c-47,0 -95,13 -127,36l31 60c21,-17 53,-28 84,-28 46,0 68,22 68,58l-68 0c-89,0 -126,36 -126,88 0,51 41,90 110,90 43,0 74,-15 90,-41l0 36 80 0 0 -168c0,-89 -52,-131 -142,-131zm-7 246c-30,0 -48,-14 -48,-35 0,-20 13,-35 53,-35l58 0 0 30c-10,27 -34,40 -63,40zm405 -246c-40,0 -75,14 -98,39l0 -34 -81 0 0 294 85 0 0 -145c0,-55 30,-80 71,-80 38,0 60,22 60,70l0 155 85 0 0 -168c0,-90 -53,-131 -122,-131zm298 304c89,0 139,-39 139,-94 0,-116 -178,-67 -178,-118 0,-15 17,-27 55,-27 27,0 56,5 85,22l29 -61c-28,-16 -73,-26 -114,-26 -86,0 -136,40 -136,96 0,117 178,68 178,116 0,17 -15,27 -54,27 -36,0 -76,-11 -103,-28l-28 61c27,18 78,32 127,32zm366 -304c-39,0 -71,13 -92,39l0 -34 -82 0 0 401 85 0 0 -138c22,24 52,36 89,36 83,0 147,-59 147,-152 0,-92 -64,-152 -147,-152zm-15 234c-42,0 -75,-31 -75,-82 0,-51 33,-82 75,-82 43,0 75,31 75,82 0,51 -32,82 -75,82zm359 70c94,0 162,-63 162,-152 0,-89 -68,-152 -162,-152 -94,0 -162,63 -162,152 0,89 68,152 162,152zm0 -70c-43,0 -76,-31 -76,-82 0,-51 33,-82 76,-82 43,0 75,31 75,82 0,51 -32,82 -75,82zm300 -190l0 -39 -82 0 0 294 86 0 0 -139c0,-56 31,-82 78,-82 7,0 12,1 19,1l0 -79c-45,0 -80,15 -101,44zm330 181c-10,7 -22,11 -35,11 -23,0 -37,-14 -37,-39l0 -120 74 0 0 -66 -74 0 0 -71 -85 0 0 71 -45 0 0 66 45 0 0 121c0,70 41,106 110,106 26,0 52,-6 70,-19l-23 -60zm350 -72c0,-95 -67,-153 -153,-153 -90,0 -157,64 -157,152 0,88 66,152 168,152 53,0 94,-17 121,-48l-45 -49c-20,19 -43,28 -74,28 -45,0 -76,-22 -84,-59l222 0c1,-7 2,-16 2,-23zm-153 -88c39,0 67,24 73,61l-145 0c6,-37 33,-61 72,-61zm292 -21l0 -39 -82 0 0 294 85 0 0 -139c0,-56 32,-82 79,-82 6,0 12,1 19,1l0 -79c-46,0 -81,15 -101,44z"/>
 </g>
</svg>
