<?xml version="1.0"?>
<svg xmlns="http://www.w3.org/2000/svg" xmlns:xlink="http://www.w3.org/1999/xlink" xmlns:svgjs="http://svgjs.com/svgjs" version="1.1" width="512" height="512" x="0" y="0" viewBox="0 0 64 64" style="enable-background:new 0 0 512 512" xml:space="preserve" class=""><g><path xmlns="http://www.w3.org/2000/svg" d="m51 31.504c-1.042 0-2.051.137-3.023.369l-5.604-17.375h5.348c-.347.595-.985 1-1.722 1-.553 0-1 .447-1 1s.447 1 1 1c2.206 0 4-1.794 4-4 0-.553-.447-1-1-1h-8c-.055 0-.102.022-.154.031-.051.008-.102 0-.152.017-.015.005-.024.017-.039.021-.067.025-.124.065-.184.104-.051.032-.104.059-.147.1-.047.044-.08.098-.117.149-.038.052-.079.1-.106.157-.024.054-.033.111-.049.169-.019.07-.039.137-.042.21-.001.015-.009.027-.009.042 0 .053.022.099.03.149.008.053.001.104.018.157l4.419 13.699h-19.384l-.685-2h4.602c.553 0 1-.447 1-1 0-2.206-1.794-4-4-4h-5.995v-5.002c0-.005-.003-.01-.003-.015v-4.989-.001c0-.131-.026-.261-.077-.384-.037-.087-.097-.159-.155-.232-.023-.029-.033-.064-.061-.092l-2.999-2.998c-.092-.093-.203-.166-.326-.217-.122-.051-.252-.077-.382-.077h-12.002c-.13 0-.26.026-.382.077-.123.051-.234.124-.326.217l-2.999 2.999c-.027.027-.038.064-.063.094-.058.072-.117.144-.152.23-.052.123-.078.253-.078.384v.001 5.004 12.996c0 .553.447 1 1 1l21.431.006-2.749 3.869c-1.956-1.178-4.236-1.869-6.682-1.869-7.168 0-13 5.832-13 13s5.832 13 13 13c6.83 0 12.436-5.299 12.949-12h.192c.447 1.721 2 3 3.858 3 .739 0 1.424-.215 2.019-.566l.561.561h-.579c-.553 0-1 .447-1 1s.447 1 1 1h5c.553 0 1-.447 1-1s-.447-1-1-1h-1.593l-1.975-1.974c.352-.596.568-1.281.568-2.021 0-.747-.219-1.438-.576-2.036l11.969-12.091.679 2.104c-4.731 1.947-8.072 6.599-8.072 12.023 0 7.168 5.832 13 13 13s13-5.832 13-13-5.832-13-13-13zm-7.558-2-11.44 11.558c-.591-.346-1.27-.558-2.002-.558-.156 0-.305.028-.455.046l-3.778-11.046zm-20.473-2-2.964-.001v-1.999h2.28zm-4.967-13.002h-1v-4.592l1 1zm-13.002 0v-3.004h10.002v3.004zm10.002-5.004h-10.002v-1.002h10.002zm-12.002 5.004h-1v-3.592l1-1zm-1 2h16.005v4.978c0 .009-.005.016-.005.024s.005.016.005.024v2.951c0 .009-.005.016-.005.024s.005.016.005.024v2.974l-16.005-.003zm24 6.002c.736 0 1.375.405 1.722 1h-7.717v-1zm-1.947 8.17 3.622 10.589c-.748.538-1.295 1.325-1.533 2.241h-.192c-.275-3.6-2.014-6.794-4.632-8.979zm-1.104 12.83c-.259-2.594-1.519-4.893-3.379-6.52l.582-.82c2.113 1.814 3.531 4.411 3.797 7.34zm-7.949 1c0 1.103-.897 2-2 2s-2-.897-2-2 .897-2 2-2c.063 0 .12.013.182.019l-.997 1.402c-.319.45-.214 1.074.236 1.395.176.125.378.185.578.185.313 0 .621-.146.816-.421l1-1.407c.117.252.185.531.185.827zm-.579-3.727c-.442-.17-.919-.273-1.421-.273-2.206 0-4 1.794-4 4s1.794 4 4 4c1.858 0 3.411-1.279 3.858-3h4.072c-.495 3.939-3.858 7-7.931 7-4.411 0-8-3.589-8-8s3.589-8 8-8c1.367 0 2.654.346 3.78.953zm2.437 2.727c-.152-.585-.434-1.112-.812-1.562l2.358-3.319c1.358 1.25 2.284 2.958 2.525 4.881zm-3.858 12c-6.065 0-11-4.935-11-11s4.935-11 11-11c2.014 0 3.896.553 5.521 1.502l-.58.816c-1.459-.835-3.144-1.318-4.941-1.318-5.514 0-10 4.486-10 10s4.486 10 10 10c5.176 0 9.445-3.954 9.949-9h1c-.508 5.598-5.221 10-10.949 10zm17.707-11.705c-.391-.391-1.023-.391-1.414 0s-.391 1.023 0 1.414l1.217 1.217c-.164.044-.332.074-.51.074-1.101 0-1.996-.895-1.999-1.993 0-.003.001-.005.001-.007s-.001-.004-.001-.007c.002-.817.499-1.521 1.206-1.827.002-.001.003 0 .005-.001.006-.002.01-.007.016-.009.238-.101.499-.156.772-.156 1.103 0 2 .897 2 2 0 .179-.031.348-.075.513zm20.293 11.705c-6.065 0-11-4.935-11-11 0-4.535 2.759-8.436 6.686-10.116l.31.959c-3.525 1.548-5.996 5.067-5.996 9.157 0 5.514 4.486 10 10 10s10-4.486 10-10-4.486-10-10-10c-.721 0-1.423.081-2.102.227l-.307-.952c.775-.175 1.58-.274 2.408-.274 6.065 0 11 4.935 11 11s-4.934 10.999-10.999 10.999zm-1.48-12.332.528 1.639c.137.424.529.693.952.693.102 0 .205-.016.307-.048.526-.17.814-.733.646-1.259l-.531-1.646c.9.193 1.578.995 1.578 1.953 0 1.103-.897 2-2 2s-2-.897-2-2c0-.514.2-.978.52-1.332zm1.48 5.332c2.206 0 4-1.794 4-4s-1.794-4-4-4c-.079 0-.153.019-.231.023l-1.252-3.88c.481-.091.977-.144 1.483-.144 4.411 0 8 3.589 8 8s-3.589 8-8 8-8-3.589-8-8c0-3.2 1.893-5.959 4.614-7.238l1.248 3.869c-1.116.712-1.862 1.952-1.862 3.37 0 2.206 1.794 4 4 4z" fill="#241e29" data-original="#000000" style="" class=""/><path xmlns="http://www.w3.org/2000/svg" d="m14.001 19.498h-8.002c-.553 0-1 .447-1 1s.447 1 1 1h8.002c.553 0 1-.447 1-1s-.447-1-1-1z" fill="#241e29" data-original="#000000" style="" class=""/><path xmlns="http://www.w3.org/2000/svg" d="m12.001 22.498h-4.002c-.553 0-1 .447-1 1s.447 1 1 1h4.002c.553 0 1-.447 1-1s-.447-1-1-1z" fill="#241e29" data-original="#000000" style="" class=""/></g></svg>
