<?xml version="1.0" encoding="UTF-8"?>
<!DOCTYPE svg PUBLIC "-//W3C//DTD SVG 1.1//EN" "http://www.w3.org/Graphics/SVG/1.1/DTD/svg11.dtd">
<!-- Creator: CorelDRAW X7 -->
<svg xmlns="http://www.w3.org/2000/svg" xml:space="preserve" width="0.700in" height="0.700in" version="1.1" style="shape-rendering:geometricPrecision; text-rendering:geometricPrecision; image-rendering:optimizeQuality; fill-rule:evenodd; clip-rule:evenodd"
viewBox="0 0 1460 1457"
 xmlns:xlink="http://www.w3.org/1999/xlink">
 <defs>
  <style type="text/css">
   <![CDATA[
    .fil0 {fill:#FF6600}
   ]]>
  </style>
 </defs>
 <g id="Layer_x0020_1">
  <metadata id="CorelCorpID_0Corel-Layer"/>
  <path class="fil0" d="M730 0c403,0 730,327 730,730 0,382 -293,695 -667,727l0 -453 144 -264c41,-74 39,-163 -3,-236 -42,-72 -116,-116 -199,-118 -3,0 -7,0 -10,0 -83,2 -157,46 -199,118 -42,73 -44,162 -3,236l144 264 0 453c-374,-32 -667,-345 -667,-727 0,-403 327,-730 730,-730zm0 714c-53,0 -97,-44 -97,-97 0,-53 44,-97 97,-97 53,0 97,44 97,97 0,53 -44,97 -97,97z"/>
 </g>
</svg>
