<?xml version="1.0" encoding="UTF-8"?>
<!DOCTYPE svg PUBLIC "-//W3C//DTD SVG 1.1//EN" "http://www.w3.org/Graphics/SVG/1.1/DTD/svg11.dtd">
<!-- Creator: CorelDRAW X7 -->
<svg xmlns="http://www.w3.org/2000/svg" xml:space="preserve" width="6.898in" height="1.457in" version="1.1" style="shape-rendering:geometricPrecision; text-rendering:geometricPrecision; image-rendering:optimizeQuality; fill-rule:evenodd; clip-rule:evenodd"
viewBox="0 0 6898 1457"
 xmlns:xlink="http://www.w3.org/1999/xlink">
 <defs>
  <style type="text/css">
   <![CDATA[
    .fil0 {fill:#FF6600}
    .fil1 {fill:#3E2357;fill-rule:nonzero}
   ]]>
  </style>
 </defs>
 <g id="Layer_x0020_1">
  <metadata id="CorelCorpID_0Corel-Layer"/>
  <path class="fil0" d="M730 0c403,0 730,327 730,730 0,382 -293,695 -667,727l0 -453 144 -264c41,-74 39,-163 -3,-236 -42,-72 -116,-116 -199,-118 -3,0 -7,0 -10,0 -83,2 -157,46 -199,118 -42,73 -44,162 -3,236l144 264 0 453c-374,-32 -667,-345 -667,-727 0,-403 327,-730 730,-730zm0 714c-53,0 -97,-44 -97,-97 0,-53 44,-97 97,-97 53,0 97,44 97,97 0,53 -44,97 -97,97z"/>
  <path class="fil1" d="M2500 976l-1 -454 -87 0 -167 282 -170 -282 -87 0 0 454 99 0 0 -266 133 218 47 0 134 -224 0 272 99 0zm350 -349l-99 237 -98 -237 -104 0 151 352 -1 3c-14,31 -30,44 -57,44 -21,0 -42,-9 -58,-22l-37 72c23,20 62,31 98,31 63,0 111,-25 144,-109l158 -371 -97 0zm229 349l105 0 0 -368 145 0 0 -86 -396 0 0 86 146 0 0 368zm388 -303l0 -46 -96 0 0 349 101 0 0 -164c0,-67 37,-98 93,-98 7,0 14,1 22,2l0 -94c-53,0 -95,18 -120,51zm320 -51c-56,0 -113,15 -151,42l36 71c26,-20 64,-32 101,-32 54,0 80,25 80,68l-80 0c-106,0 -150,43 -150,105 0,60 49,106 130,106 52,0 88,-17 107,-49l0 43 95 0 0 -199c0,-106 -62,-155 -168,-155zm-8 291c-36,0 -57,-16 -57,-42 0,-23 15,-41 62,-41l69 0 0 36c-11,32 -41,47 -74,47zm479 -291c-47,0 -88,16 -115,46l0 -41 -97 0 0 349 101 0 0 -172c0,-64 35,-94 84,-94 45,0 71,26 71,82l0 184 101 0 0 -199c0,-107 -62,-155 -145,-155zm354 360c104,0 165,-47 165,-111 0,-138 -211,-80 -211,-140 0,-18 19,-32 65,-32 31,0 66,6 100,26l34 -72c-33,-20 -86,-31 -134,-31 -102,0 -162,47 -162,113 0,140 211,81 211,138 0,20 -18,32 -64,32 -43,0 -91,-14 -122,-34l-33 73c32,21 92,38 151,38zm433 -360c-47,0 -84,15 -110,46l0 -41 -96 0 0 475 101 0 0 -163c26,29 62,43 105,43 98,0 174,-71 174,-180 0,-110 -76,-180 -174,-180zm-17 277c-51,0 -89,-37 -89,-97 0,-60 38,-97 89,-97 50,0 88,37 88,97 0,60 -38,97 -88,97zm425 83c110,0 191,-75 191,-180 0,-105 -81,-180 -191,-180 -111,0 -193,75 -193,180 0,105 82,180 193,180zm0 -83c-51,0 -90,-37 -90,-97 0,-60 39,-97 90,-97 50,0 88,37 88,97 0,60 -38,97 -88,97zm355 -226l0 -46 -97 0 0 349 102 0 0 -164c0,-67 37,-98 92,-98 8,0 15,1 23,2l0 -94c-54,0 -95,18 -120,51zm391 215c-11,9 -26,13 -41,13 -28,0 -44,-16 -44,-46l0 -142 87 0 0 -78 -87 0 0 -85 -101 0 0 85 -54 0 0 78 54 0 0 143c0,83 48,126 130,126 32,0 62,-8 83,-22l-27 -72zm415 -85c0,-112 -79,-181 -182,-181 -106,0 -186,75 -186,180 0,104 78,180 199,180 63,0 112,-20 144,-57l-54 -58c-24,22 -50,33 -87,33 -54,0 -90,-26 -100,-70l264 0c0,-8 2,-19 2,-27zm-181 -104c45,0 78,28 85,72l-172 0c8,-44 41,-72 87,-72zm345 -26l0 -46 -97 0 0 349 101 0 0 -164c0,-67 37,-98 93,-98 8,0 14,1 23,2l0 -94c-54,0 -95,18 -120,51z"/>
 </g>
</svg>
