<?xml version="1.0" encoding="utf-8"?>
<!-- Generator: Adobe Illustrator 25.2.0, SVG Export Plug-In . SVG Version: 6.00 Build 0)  -->
<svg version="1.1" id="Layer_1" xmlns="http://www.w3.org/2000/svg" xmlns:xlink="http://www.w3.org/1999/xlink" x="0px" y="0px"
	 viewBox="0 0 695 665" style="enable-background:new 0 0 695 665;" xml:space="preserve">
<style type="text/css">
	.st0{opacity:0.2;}
	.st1{opacity:0;fill:#010101;}
	.st2{opacity:0.0909;fill:#010101;}
	.st3{opacity:0.1818;fill:#010101;}
	.st4{opacity:0.2727;fill:#010101;}
	.st5{opacity:0.3636;fill:#010101;}
	.st6{opacity:0.4545;fill:#010101;}
	.st7{opacity:0.5455;fill:#010101;}
	.st8{opacity:0.6364;fill:#010101;}
	.st9{opacity:0.7273;fill:#010101;}
	.st10{opacity:0.8182;fill:#010101;}
	.st11{opacity:0.9091;fill:#010101;}
	.st12{fill:#010101;}
	.st13{fill:url(#SVGID_1_);}
	.st14{fill:url(#SVGID_2_);}
	.st15{opacity:0.6;fill:url(#SVGID_3_);}
	.st16{fill:url(#SVGID_4_);}
	.st17{fill:url(#SVGID_5_);}
	.st18{fill:url(#SVGID_6_);}
	.st19{fill:url(#SVGID_7_);}
	.st20{fill:url(#SVGID_8_);}
	.st21{fill:url(#SVGID_9_);}
	.st22{fill:url(#SVGID_10_);}
	.st23{fill:#BDBEC0;}
	.st24{opacity:0.8;}
	.st25{fill:url(#SVGID_11_);}
	.st26{fill:#654DA0;}
	.st27{fill:#F59688;}
	.st28{fill:url(#SVGID_12_);}
	.st29{fill:url(#SVGID_13_);}
	.st30{fill:#A58DC2;}
	.st31{fill:url(#SVGID_14_);}
	.st32{fill:url(#SVGID_15_);}
	.st33{fill:url(#SVGID_16_);}
	.st34{fill:url(#SVGID_17_);}
	.st35{fill:url(#SVGID_18_);}
	.st36{fill:url(#SVGID_19_);}
	.st37{fill:url(#SVGID_20_);}
	.st38{opacity:0.2;fill:#010101;}
	.st39{fill:#595A5C;}
	.st40{fill:url(#SVGID_21_);}
	.st41{fill:url(#SVGID_22_);}
	.st42{fill:url(#SVGID_23_);}
	.st43{fill:url(#SVGID_24_);}
	.st44{fill:url(#SVGID_25_);}
	.st45{fill:url(#SVGID_26_);}
	.st46{fill:url(#SVGID_27_);}
	.st47{fill:url(#SVGID_28_);}
	.st48{fill:url(#SVGID_29_);}
	.st49{fill:url(#SVGID_30_);}
	.st50{fill:url(#SVGID_31_);}
	.st51{fill:#E6E7E7;}
	.st52{fill:url(#SVGID_32_);}
	.st53{fill:#1A144C;}
	.st54{fill:url(#SVGID_33_);}
	.st55{fill:url(#SVGID_34_);}
	.st56{fill:url(#SVGID_35_);}
	.st57{fill:url(#SVGID_36_);}
	.st58{fill:url(#SVGID_37_);}
	.st59{fill:url(#SVGID_38_);}
	.st60{fill:url(#SVGID_39_);}
	.st61{fill:url(#SVGID_40_);}
	.st62{opacity:0.7;fill:url(#SVGID_41_);}
	.st63{fill:url(#SVGID_42_);}
	.st64{fill:url(#SVGID_43_);}
	.st65{fill:url(#SVGID_44_);}
	.st66{fill:url(#SVGID_45_);}
	.st67{fill:url(#SVGID_46_);}
	.st68{fill:url(#SVGID_47_);}
	.st69{fill:url(#SVGID_48_);}
	.st70{fill:url(#SVGID_49_);}
	.st71{fill:url(#SVGID_50_);}
	.st72{fill:url(#SVGID_51_);}
	.st73{fill:url(#SVGID_52_);}
	.st74{fill:url(#SVGID_53_);}
	.st75{fill:url(#SVGID_54_);}
	.st76{fill:url(#SVGID_55_);}
	.st77{fill:url(#SVGID_56_);}
	.st78{fill:url(#SVGID_57_);}
	.st79{fill:url(#SVGID_58_);}
	.st80{fill:url(#SVGID_59_);}
	.st81{fill:url(#SVGID_60_);}
	.st82{fill:#D2D3D4;}
	.st83{fill:url(#SVGID_61_);}
	.st84{fill:url(#SVGID_62_);}
	.st85{fill:url(#SVGID_63_);}
	.st86{fill:url(#SVGID_64_);}
	.st87{fill:url(#SVGID_65_);}
	.st88{fill:url(#SVGID_66_);}
	.st89{fill:url(#SVGID_67_);}
	.st90{fill:url(#SVGID_68_);}
	.st91{fill:url(#SVGID_69_);}
	.st92{fill:url(#SVGID_70_);}
	.st93{fill:url(#SVGID_71_);}
	.st94{fill:url(#SVGID_72_);}
	.st95{fill:url(#SVGID_73_);}
	.st96{fill:url(#SVGID_74_);}
	.st97{fill:url(#SVGID_75_);}
	.st98{fill:url(#SVGID_76_);}
	.st99{fill:url(#SVGID_77_);}
	.st100{fill:url(#SVGID_78_);}
	.st101{fill:url(#SVGID_79_);}
	.st102{fill:url(#SVGID_80_);}
	.st103{fill:url(#SVGID_81_);}
	.st104{fill:url(#SVGID_82_);}
	.st105{fill:url(#SVGID_83_);}
	.st106{fill:url(#SVGID_84_);}
	.st107{fill:url(#SVGID_85_);}
	.st108{fill:url(#SVGID_86_);}
	.st109{fill:url(#SVGID_87_);}
	.st110{fill:url(#SVGID_88_);}
	.st111{fill:url(#SVGID_89_);}
	.st112{fill:url(#SVGID_90_);}
	.st113{fill:url(#SVGID_91_);}
	.st114{fill:url(#SVGID_92_);}
	.st115{fill:url(#SVGID_93_);}
	.st116{fill:url(#SVGID_94_);}
	.st117{fill:url(#SVGID_95_);}
	.st118{fill:url(#SVGID_96_);}
	.st119{fill:url(#SVGID_97_);}
	.st120{fill:url(#SVGID_98_);}
	.st121{fill:url(#SVGID_99_);}
	.st122{fill:url(#SVGID_100_);}
	.st123{fill:url(#SVGID_101_);}
	.st124{fill:url(#SVGID_102_);}
	.st125{fill:url(#SVGID_103_);}
	.st126{fill:url(#SVGID_104_);}
	.st127{fill:url(#SVGID_105_);}
	.st128{fill:url(#SVGID_106_);}
	.st129{fill:url(#SVGID_107_);}
	.st130{fill:url(#SVGID_108_);}
	.st131{fill:url(#SVGID_109_);}
	.st132{fill:url(#SVGID_110_);}
	.st133{fill:url(#SVGID_111_);}
	.st134{fill:url(#SVGID_112_);}
	.st135{fill:url(#SVGID_113_);}
	.st136{fill:url(#SVGID_114_);}
	.st137{fill:url(#SVGID_115_);}
	.st138{opacity:0.2;fill:url(#SVGID_116_);}
	.st139{fill:url(#SVGID_117_);}
	.st140{fill:url(#SVGID_118_);}
	.st141{fill:url(#SVGID_119_);}
	.st142{fill:url(#SVGID_120_);}
	.st143{fill:url(#SVGID_121_);}
	.st144{fill:url(#SVGID_122_);}
	.st145{fill:url(#SVGID_123_);}
	.st146{fill:url(#SVGID_124_);}
	.st147{fill:url(#SVGID_125_);}
	.st148{fill:url(#SVGID_126_);}
	.st149{fill:url(#SVGID_127_);}
	.st150{fill:url(#SVGID_128_);}
	.st151{fill:url(#SVGID_129_);}
	.st152{fill:url(#SVGID_130_);}
	.st153{fill:url(#SVGID_131_);}
</style>
<g class="st0">
	<path class="st1" d="M594.94,566.81c-5.22,0-9.95-1.14-13.7-3.3l-83.17-47.33l-83.17-47.33c-4.99-2.88-7.86-7.45-7.86-12.52
		c0-5.56,3.45-10.74,9.46-14.21l54.43-30.63c4.72-2.73,10.63-4.23,16.63-4.23c5.22,0,9.95,1.14,13.7,3.3l83.17,47.33l83.17,47.33
		c4.99,2.88,7.86,7.45,7.86,12.52c0,5.56-3.45,10.74-9.46,14.21l-54.43,30.63C606.85,565.31,600.94,566.81,594.94,566.81z"/>
	<path class="st2" d="M417.97,443.29l14.76-8.23c0.6-0.35,28.3-15.46,28.82-15.16l9.52-4.66c4.29-2.48,10.6-3.3,16.06-3.3
		c4.74,0,9.82,1.48,13.22,3.45l66.59,37.93l14.2,8.09l80.8,46.02c2.61,1.51,5.03,3.83,6.28,6.11c0.99,1.81,1.59,3.76,1.65,5.82
		c0.17,5.34-3.12,10.41-9.03,13.82l-14.76,8.23c-0.6,0.35-28.3,15.46-28.82,15.16l-9.52,4.66c-4.29,2.48-10.6,3.3-16.06,3.3
		c-4.74,0-9.82-1.48-13.22-3.45l-66.59-37.93l-14.2-8.09l-80.8-46.02c-2.61-1.51-5.03-3.83-6.28-6.11
		c-0.99-1.81-1.59-3.76-1.65-5.82C408.77,451.77,412.06,446.7,417.97,443.29z"/>
	<path class="st3" d="M419.45,444.46l14.36-7.94c1.2-0.69,27.13-14.33,28.17-13.73l9.24-3.81c3.86-2.23,10.57-2.37,15.49-2.37
		c4.27,0,9.69,1.82,12.75,3.59l64.64,36.85l13.79,7.86l78.42,44.72c2.35,1.36,5.02,3.78,6.19,5.82c1,1.74,1.68,3.57,1.8,5.54
		c0.31,5.13-2.79,10.08-8.61,13.43l-14.36,7.94c-1.2,0.69-27.13,14.33-28.17,13.73l-9.24,3.81c-3.86,2.23-10.57,2.37-15.49,2.37
		c-4.27,0-9.69-1.82-12.75-3.59l-64.64-36.85l-13.79-7.86l-78.42-44.72c-2.35-1.36-5.02-3.78-6.19-5.82c-1-1.74-1.68-3.57-1.8-5.54
		C410.53,452.76,413.63,447.82,419.45,444.46z"/>
	<path class="st4" d="M420.92,445.63l13.97-7.64c1.8-1.04,25.96-13.21,27.52-12.31l8.95-2.96c3.43-1.98,10.55-1.45,14.91-1.45
		c3.8,0,9.55,2.16,12.27,3.74l62.68,35.78l13.37,7.63l76.05,43.41c2.09,1.2,5.03,3.73,6.11,5.52c1.01,1.67,1.77,3.38,1.95,5.25
		c0.47,4.91-2.47,9.75-8.18,13.04l-13.97,7.64c-1.8,1.04-25.96,13.21-27.52,12.31l-8.95,2.96c-3.43,1.98-10.55,1.45-14.91,1.45
		c-3.8,0-9.55-2.16-12.27-3.74l-62.68-35.78l-13.37-7.63l-76.05-43.41c-2.09-1.2-5.03-3.74-6.11-5.52
		c-1.01-1.67-1.77-3.38-1.95-5.25C412.27,453.76,415.21,448.93,420.92,445.63z"/>
	<path class="st5" d="M422.4,446.8l13.57-7.35c2.4-1.39,24.79-12.09,26.88-10.89l8.67-2.11c3.01-1.73,10.52-0.52,14.34-0.52
		c3.32,0,9.42,2.51,11.8,3.88l60.73,34.7l12.95,7.4l73.68,42.1c1.83,1.05,5.04,3.68,6.02,5.22c1.02,1.6,1.86,3.19,2.1,4.97
		c0.63,4.7-2.14,9.41-7.75,12.66l-13.57,7.35c-2.4,1.39-24.79,12.09-26.88,10.89l-8.67,2.11c-3.01,1.73-10.52,0.52-14.34,0.52
		c-3.32,0-9.42-2.5-11.8-3.88l-60.73-34.7l-12.95-7.4l-73.68-42.1c-1.83-1.05-5.04-3.68-6.03-5.22c-1.02-1.6-1.86-3.19-2.1-4.97
		C414.01,454.76,416.78,450.04,422.4,446.8z"/>
	<path class="st6" d="M423.87,447.97l13.17-7.05c3.01-1.74,23.63-10.97,26.23-9.46l8.39-1.25c2.58-1.49,10.49,0.4,13.77,0.4
		c2.85,0,9.28,2.85,11.32,4.02l58.77,33.62l12.53,7.17l71.3,40.79c1.56,0.9,5.07,3.63,5.94,4.92c1.04,1.54,1.95,3,2.25,4.68
		c0.8,4.48-1.81,9.08-7.32,12.27l-13.17,7.05c-3.01,1.74-23.63,10.97-26.23,9.46l-8.39,1.25c-2.58,1.49-10.49-0.4-13.77-0.4
		c-2.85,0-9.28-2.85-11.32-4.02l-58.77-33.62l-12.53-7.17l-71.3-40.79c-1.56-0.9-5.07-3.63-5.94-4.92c-1.04-1.54-1.95-3-2.25-4.68
		C415.75,455.76,418.36,451.16,423.87,447.97z"/>
	<path class="st7" d="M425.34,449.14l12.77-6.75c3.61-2.08,22.46-9.85,25.58-8.04l8.1-0.4c2.15-1.24,10.47,1.33,13.19,1.33
		c2.37,0,9.15,3.19,10.85,4.17l56.81,32.54l12.11,6.94l68.93,39.48c1.3,0.75,5.1,3.57,5.86,4.63c1.05,1.48,2.04,2.82,2.4,4.39
		c0.96,4.27-1.48,8.75-6.89,11.88l-12.77,6.75c-3.61,2.08-22.46,9.84-25.58,8.04l-8.1,0.4c-2.15,1.24-10.47-1.33-13.19-1.33
		c-2.37,0-9.15-3.19-10.85-4.17l-56.81-32.54l-12.11-6.94l-68.93-39.48c-1.3-0.75-5.1-3.57-5.86-4.63c-1.05-1.48-2.04-2.82-2.4-4.39
		C417.49,456.75,419.93,452.27,425.34,449.14z"/>
	<path class="st8" d="M426.82,450.32l12.37-6.46c4.21-2.43,21.29-8.72,24.93-6.62l7.82,0.45c1.72-0.99,10.44,2.26,12.62,2.26
		c1.9,0,9.01,3.53,10.37,4.31l54.86,31.47l11.7,6.71l66.55,38.17c1.04,0.6,5.15,3.5,5.77,4.33c1.07,1.42,2.14,2.63,2.55,4.11
		c1.13,4.05-1.15,8.42-6.47,11.49L617.53,547c-4.21,2.43-21.29,8.72-24.93,6.62l-7.82-0.45c-1.72,0.99-10.44-2.26-12.62-2.26
		c-1.9,0-9.01-3.53-10.37-4.31l-54.86-31.47l-11.7-6.71l-66.55-38.17c-1.04-0.6-5.15-3.5-5.77-4.33c-1.07-1.42-2.14-2.63-2.55-4.11
		C419.23,457.75,421.51,453.38,426.82,450.32z"/>
	<path class="st9" d="M428.29,451.49l11.98-6.16c4.81-2.78,20.12-7.6,24.29-5.2l7.54,1.3c1.29-0.74,10.41,3.18,12.05,3.18
		c1.42,0,8.88,3.87,9.9,4.46l52.9,30.39l11.28,6.48l64.18,36.87c0.78,0.45,5.33,3.34,5.69,4.03c1.34,1.13,2.23,2.44,2.7,3.82
		c1.29,3.84-0.83,8.09-6.04,11.1l-11.98,6.16c-4.81,2.78-20.12,7.6-24.29,5.2l-7.54-1.3c-1.29,0.74-10.41-3.18-12.05-3.18
		c-1.42,0-8.88-3.87-9.9-4.46l-52.9-30.39l-11.28-6.48l-64.18-36.87c-0.78-0.45-5.33-3.34-5.69-4.03c-1.34-1.13-2.23-2.44-2.7-3.82
		C420.96,458.75,423.08,454.5,428.29,451.49z"/>
	<path class="st10" d="M429.77,452.66l11.58-5.86c5.41-3.12,18.95-6.48,23.64-3.77l7.25,2.16c0.86-0.5,10.38,4.11,11.48,4.11
		c0.95,0,8.74,4.21,9.42,4.6l50.94,29.31l10.86,6.25l61.8,35.56c0.52,0.3,5.37,3.27,5.61,3.74c1.38,1.04,2.33,2.25,2.85,3.54
		c1.47,3.62-0.5,7.76-5.61,10.71l-11.58,5.86c-5.41,3.12-18.95,6.48-23.64,3.77l-7.25-2.16c-0.86,0.5-10.38-4.11-11.48-4.11
		c-0.95,0-8.74-4.21-9.42-4.6l-50.94-29.31l-10.86-6.25l-61.8-35.56c-0.52-0.3-5.37-3.27-5.61-3.74c-1.38-1.04-2.33-2.25-2.85-3.54
		C422.69,459.75,424.65,455.61,429.77,452.66z"/>
	<path class="st11" d="M431.24,453.83l11.18-5.57c6.01-3.47,17.79-5.36,22.99-2.35l6.97,3.01c0.43-0.25,10.36,5.04,10.9,5.04
		c0.47,0,8.61,4.55,8.95,4.75l48.99,28.23l10.44,6.02l59.43,34.25c0.26,0.15,5.4,3.21,5.52,3.44c1.43,0.94,2.42,2.06,3,3.25
		c1.64,3.4-0.17,7.43-5.18,10.32l-11.18,5.57c-6.01,3.47-17.79,5.36-22.99,2.35l-6.97-3.01c-0.43,0.25-10.36-5.04-10.9-5.04
		c-0.47,0-8.61-4.55-8.95-4.75l-48.99-28.23l-10.44-6.02l-59.43-34.25c-0.26-0.15-5.4-3.21-5.52-3.44c-1.43-0.94-2.42-2.06-3-3.25
		C424.42,460.75,426.23,456.72,431.24,453.83z"/>
	<path class="st12" d="M576.15,551.64l-72.52-41.87l-72.52-41.87c-5.73-3.31-5.01-9.08,1.6-12.9l10.78-5.27
		c6.61-3.82,16.62-4.23,22.35-0.93l72.52,41.87l72.52,41.87c5.73,3.31,5.01,9.08-1.6,12.9l-10.78,5.27
		C591.88,554.53,581.88,554.95,576.15,551.64z"/>
</g>
<g>
	<linearGradient id="SVGID_1_" gradientUnits="userSpaceOnUse" x1="381.6439" y1="74.329" x2="547.3068" y2="361.2657">
		<stop  offset="0.0556" style="stop-color:#220B41"/>
		<stop  offset="0.2153" style="stop-color:#220C42"/>
		<stop  offset="0.294" style="stop-color:#240F45"/>
		<stop  offset="0.355" style="stop-color:#27144B"/>
		<stop  offset="0.4069" style="stop-color:#2B1A53"/>
		<stop  offset="0.4526" style="stop-color:#30215D"/>
		<stop  offset="0.4697" style="stop-color:#312462"/>
		<stop  offset="0.4804" style="stop-color:#352664"/>
		<stop  offset="0.4922" style="stop-color:#3E2E6B"/>
		<stop  offset="0.5043" style="stop-color:#4E3C78"/>
		<stop  offset="0.5169" style="stop-color:#65508D"/>
		<stop  offset="0.5295" style="stop-color:#856EAE"/>
		<stop  offset="0.5303" style="stop-color:#8770B2"/>
		<stop  offset="0.5486" style="stop-color:#6B5693"/>
		<stop  offset="0.5704" style="stop-color:#523F7B"/>
		<stop  offset="0.5912" style="stop-color:#40306D"/>
		<stop  offset="0.6103" style="stop-color:#352764"/>
		<stop  offset="0.6263" style="stop-color:#312462"/>
		<stop  offset="0.678" style="stop-color:#2C1B54"/>
		<stop  offset="0.7282" style="stop-color:#271349"/>
		<stop  offset="0.7745" style="stop-color:#230D43"/>
		<stop  offset="0.8131" style="stop-color:#220B41"/>
		<stop  offset="1" style="stop-color:#220B41"/>
	</linearGradient>
	<path class="st13" d="M576.25,541.58l-126.82-73.22c-14.31-8.26-25.9-30.42-25.9-49.49V81.12c0-9.7-7.97-11.84-3.14-15.33
		c0.18-0.13,11.32-5.19,11.53-5.27c5.2-1.99,10.76-2.88,17.52,1.02l126.82,73.22c14.31,8.26,25.9,30.42,25.9,49.49V522
		c0,10.14-3.27,17.36-8.49,20.67c-0.31,0.2-13.73,6.58-14.07,6.69C574.97,550.9,582.5,545.19,576.25,541.58z"/>
	<radialGradient id="SVGID_2_" cx="639.0869" cy="190.9058" r="310.8829" gradientUnits="userSpaceOnUse">
		<stop  offset="0" style="stop-color:#722056"/>
		<stop  offset="0.1282" style="stop-color:#6E2154"/>
		<stop  offset="0.2879" style="stop-color:#64234E"/>
		<stop  offset="0.4645" style="stop-color:#542443"/>
		<stop  offset="0.6532" style="stop-color:#3F2134"/>
		<stop  offset="0.8493" style="stop-color:#241820"/>
		<stop  offset="1" style="stop-color:#010101"/>
	</radialGradient>
	<path class="st14" d="M575.08,135.15L448.25,61.92c-6.75-3.9,119.81,75.56,119.81,75.56c14.31,8.26,25.9,30.42,25.9,49.49
		c0,0,7.01,345.55,7.01,335.41V184.64C600.98,165.56,589.38,143.41,575.08,135.15z"/>
	<radialGradient id="SVGID_3_" cx="587.0775" cy="168.6945" r="183.1538" gradientUnits="userSpaceOnUse">
		<stop  offset="0" style="stop-color:#9D8AC1"/>
		<stop  offset="1" style="stop-color:#1A144C"/>
	</radialGradient>
	<path class="st15" d="M566.4,546.09l-126.82-73.22c-14.31-8.26-25.9-30.42-25.9-49.49V85.62c0-19.07,11.6-27.84,25.9-19.58
		l126.82,73.22c14.31,8.26,25.9,30.42,25.9,49.49V526.5C592.3,545.58,580.7,554.35,566.4,546.09z"/>
	<linearGradient id="SVGID_4_" gradientUnits="userSpaceOnUse" x1="601.8474" y1="338.9372" x2="95.524" y2="180.4359">
		<stop  offset="0.1869" style="stop-color:#3E1F5E"/>
		<stop  offset="0.9343" style="stop-color:#3E1F5E"/>
	</linearGradient>
	<path class="st16" d="M564.14,547.31l-126.82-73.22c-14.31-8.26-25.9-30.42-25.9-49.49V86.84c0-19.07,11.6-27.84,25.9-19.58
		l126.82,73.22c14.31,8.26,25.9,30.42,25.9,49.49v337.75C590.04,546.8,578.45,555.57,564.14,547.31z"/>
	<linearGradient id="SVGID_5_" gradientUnits="userSpaceOnUse" x1="608.4461" y1="534.894" x2="351.3219" y2="-8.4133">
		<stop  offset="0" style="stop-color:#312462"/>
		<stop  offset="0.0816" style="stop-color:#2F205C"/>
		<stop  offset="0.3562" style="stop-color:#261248"/>
		<stop  offset="0.4949" style="stop-color:#220B41"/>
		<stop  offset="0.8705" style="stop-color:#1A1029"/>
		<stop  offset="1" style="stop-color:#150F1F"/>
	</linearGradient>
	<path class="st17" d="M414.94,426.84V88.67c0-16.72,10.17-24.41,22.71-17.17l126.15,72.83c12.54,7.24,22.71,26.67,22.71,43.39
		v338.17c0,16.72-10.17,24.41-22.71,17.17l-126.15-72.83C425.11,462.98,414.94,443.56,414.94,426.84z"/>
	<linearGradient id="SVGID_6_" gradientUnits="userSpaceOnUse" x1="419.99" y1="307.2822" x2="581.4643" y2="307.2822">
		<stop  offset="0" style="stop-color:#312462"/>
		<stop  offset="0.0816" style="stop-color:#2F205C"/>
		<stop  offset="0.3562" style="stop-color:#261248"/>
		<stop  offset="0.4949" style="stop-color:#220B41"/>
		<stop  offset="0.8705" style="stop-color:#1A1029"/>
		<stop  offset="1" style="stop-color:#150F1F"/>
	</linearGradient>
	<path class="st18" d="M419.99,428.9V92.44c0-14,8.51-20.43,19.01-14.37l123.46,71.28c10.5,6.06,19.01,22.32,19.01,36.32v336.45
		c0,14-8.51,20.43-19.01,14.37L439,465.21C428.5,459.15,419.99,442.89,419.99,428.9z"/>
	<linearGradient id="SVGID_7_" gradientUnits="userSpaceOnUse" x1="568.902" y1="529.6475" x2="434.6282" y2="91.6882">
		<stop  offset="0" style="stop-color:#8C71B2"/>
		<stop  offset="0.2282" style="stop-color:#9588B2"/>
		<stop  offset="0.4145" style="stop-color:#9A98B3"/>
		<stop  offset="0.5303" style="stop-color:#9D9EB3"/>
		<stop  offset="0.6135" style="stop-color:#A2A3B7"/>
		<stop  offset="0.733" style="stop-color:#B2B1C2"/>
		<stop  offset="0.8737" style="stop-color:#CDCBD7"/>
		<stop  offset="1" style="stop-color:#EEEBF0"/>
	</linearGradient>
	<path class="st19" d="M440.43,81.79c-9.89-5.71-17.91-1.14-17.91,10.21v340.24c0,11.35,8.02,25.19,17.91,30.9l120.6,69.63
		c9.89,5.71,17.91,1.14,17.91-10.21V182.32c0-11.35-8.02-25.19-17.91-30.9L440.43,81.79z"/>
	
		<linearGradient id="SVGID_8_" gradientUnits="userSpaceOnUse" x1="-106.1743" y1="10496.7178" x2="-77.285" y2="10496.7178" gradientTransform="matrix(-0.5 1.4434 -0.866 0.5 9641.6982 -4861.52)">
		<stop  offset="0" style="stop-color:#312462"/>
		<stop  offset="0.0816" style="stop-color:#2F205C"/>
		<stop  offset="0.3562" style="stop-color:#261248"/>
		<stop  offset="0.4949" style="stop-color:#220B41"/>
		<stop  offset="0.8705" style="stop-color:#1A1029"/>
		<stop  offset="1" style="stop-color:#150F1F"/>
	</linearGradient>
	<path class="st20" d="M593.45,268.12v-22.8c0-2.92,1.77-6.3,3.96-7.57l0,0c2.19-1.26,3.96,0.08,3.96,2.99v22.8
		c0,2.92-1.77,6.3-3.96,7.57l0,0C595.22,272.38,593.45,271.04,593.45,268.12z"/>
	<linearGradient id="SVGID_9_" gradientUnits="userSpaceOnUse" x1="604.8409" y1="254.7559" x2="584.9189" y2="253.899">
		<stop  offset="0" style="stop-color:#3E1F5E"/>
		<stop  offset="1" style="stop-color:#5E469C"/>
	</linearGradient>
	<path class="st21" d="M595.84,270.73c-1.13,0-1.53-1.41-1.53-2.61v-22.8c0-2.59,1.62-5.72,3.53-6.82c0.41-0.23,0.8-0.36,1.14-0.36
		c1.13,0,1.53,1.41,1.53,2.61v22.8c0,2.59-1.62,5.72-3.53,6.82C596.57,270.61,596.17,270.73,595.84,270.73z"/>
	<radialGradient id="SVGID_10_" cx="594.8235" cy="246.2561" r="11.7001" gradientUnits="userSpaceOnUse">
		<stop  offset="0" style="stop-color:#722056"/>
		<stop  offset="0.1282" style="stop-color:#6E2154"/>
		<stop  offset="0.2879" style="stop-color:#64234E"/>
		<stop  offset="0.4645" style="stop-color:#542443"/>
		<stop  offset="0.6532" style="stop-color:#3F2134"/>
		<stop  offset="0.8493" style="stop-color:#241820"/>
		<stop  offset="1" style="stop-color:#010101"/>
	</radialGradient>
	<path class="st22" d="M595.47,268.71v-22.8c0-2.59,1.62-5.72,3.53-6.82c0.36-0.21,0.7-0.31,1.01-0.34
		c-0.24-0.36-0.58-0.61-1.04-0.61c-0.34,0-0.73,0.13-1.14,0.36c-1.91,1.1-3.53,4.23-3.53,6.82v22.8c0,1.2,0.4,2.61,1.53,2.61
		c0.04,0,0.09-0.02,0.13-0.02C595.62,270.19,595.47,269.42,595.47,268.71z"/>
	<path class="st23" d="M561.03,151.42l-120.6-69.63c-9.89-5.71-17.91-1.14-17.91,10.21v340.24c0,11.35,8.02,25.19,17.91,30.9
		l120.6,69.63c9.89,5.71,17.91,1.14,17.91-10.21V182.32C578.94,170.97,570.92,157.13,561.03,151.42z M577.38,522.56
		c0,3.52-0.83,6.42-2.4,8.38c-1.44,1.79-3.48,2.74-5.92,2.74h0c-2.2,0-4.71-0.78-7.26-2.25l-120.6-69.63
		c-9.45-5.45-17.14-18.71-17.14-29.55V92.01c0-6.86,3.19-11.12,8.32-11.12c2.2,0,4.71,0.78,7.26,2.25l120.6,69.63
		c9.45,5.45,17.13,18.71,17.13,29.55V522.56z"/>
</g>
<g class="st24">
	<linearGradient id="SVGID_11_" gradientUnits="userSpaceOnUse" x1="424.3736" y1="557.9552" x2="503.4324" y2="343.3672">
		<stop  offset="0" style="stop-color:#253169"/>
		<stop  offset="0.0931" style="stop-color:#243F74"/>
		<stop  offset="0.289" style="stop-color:#226192"/>
		<stop  offset="0.4848" style="stop-color:#148CBD"/>
		<stop  offset="0.6303" style="stop-color:#1595C3"/>
		<stop  offset="0.9108" style="stop-color:#1AACD1"/>
		<stop  offset="1" style="stop-color:#1DB5D7"/>
	</linearGradient>
	<polygon class="st25" points="528.79,501.97 485.48,443.68 458.64,386.94 449.32,341.83 422.51,306.62 422.51,372.51 
		433.73,383.01 450.84,416.22 448.68,429.38 455.61,439.84 460.8,436.88 499.96,497.52 533.89,517.1 	"/>
	<path class="st26" d="M558.91,219.21l20.03,11.56v-4.35l-20.03-11.56V150.2l-3.76-2.17v64.66l-12.45-7.19l-11.67-30.28
		l-108.52-62.66v4.35l23.72,13.7v56.84l-23.72-13.7v4.35l23.72,13.7v38.74l-23.72-13.73v4.35L450,237.07v-43.1l81.26,46.91v86.01
		l-10.1-5.83l-34.97,10.56l-63.67-36.76v4.35l42.86,24.74v56.54l-42.86,19.08v4.12l44.32-19.73l39.22,66.98L469,479.64l3.52,2.03
		l62.76-48.62l19.86,11.37v82.72h3.76v-80.56l19.72,11.29l0.31-0.54v-3.62l-20.03-11.47v-55.5l20.03,11.56v-4.35l-20.03-11.56V347.2
		l20.03,11.56v-4.35l-20.03-11.56v-86l20.03,11.56v-4.35l-20.03-11.56V219.21z M469.14,326.12l15.87,9.16l0.71,0.41l34.97-10.56
		l10.57,6.1v35.2l-14.95-8.62l-47.17,21V326.12z M555.15,440.08l-20.17-11.55l-25.92,20.08l-38.77-66.2l45.79-20.38l15.17,8.75v0.12
		h0.2l23.69,13.67V440.08z M555.15,380.22l-20.13-11.61v-35.2l20.13,11.62V380.22z M555.15,340.68l-20.13-11.62v-86l20.13,11.62
		V340.68z M555.15,250.33L450,189.63v-56.84l78,45.03l11.67,30.28l15.48,8.94V250.33z"/>
	<polygon class="st27" points="569.18,532.91 575.95,529.6 519.49,414.47 519.49,355.94 499.28,318.18 499.28,115.77 491.75,111.43 
		491.75,320.07 511.96,357.83 511.96,416.21 	"/>
</g>
<linearGradient id="SVGID_12_" gradientUnits="userSpaceOnUse" x1="564.7836" y1="495.6683" x2="603.3718" y2="538.9624">
	<stop  offset="0" style="stop-color:#FFFFFF"/>
	<stop  offset="1" style="stop-color:#000000"/>
</linearGradient>
<path class="st28" d="M532.13,524.94c0,0,24.25-14.92,39.53-29.18c14.12-13.18,22.59-32.94,22.59-32.94s7.53,59.29-3.76,69.65
	S532.13,524.94,532.13,524.94z"/>
<g>
	<g>
		<linearGradient id="SVGID_13_" gradientUnits="userSpaceOnUse" x1="373.795" y1="328.9326" x2="496.5864" y2="191.3656">
			<stop  offset="0.0354" style="stop-color:#654DA0"/>
			<stop  offset="0.3495" style="stop-color:#6F57A4"/>
			<stop  offset="0.9559" style="stop-color:#8A6FB1"/>
			<stop  offset="1" style="stop-color:#8C71B2"/>
		</linearGradient>
		<path class="st29" d="M488.27,262.02v14.36c0,4.45-2.72,8.45-6.86,10.1c-9.76,3.87-20.78,2.88-29.69-2.69l-39.56-26.04
			c-7.57-4.73-7.77-15.46-0.89-20.58v-40.78l-13.16,7.87c-27.12,16.22-26.89,55.6,0.42,71.5l39,22.67
			c16.7,9.73,37.48,9.15,53.61-1.5c4.43-2.92,7.21-7.78,7.49-13.08l0.08-15.88L488.27,262.02z"/>
		<path class="st30" d="M487.2,260.19v16.19c0,4.04-2.43,7.62-6.18,9.11c-9.41,3.74-20.15,2.76-28.73-2.6l-39.56-26.04
			c-3.46-2.16-5.47-5.89-5.37-9.97c0.08-3.27,1.52-6.23,3.92-8.31v-2.66c-3.69,2.44-5.94,6.44-6.05,10.92
			c-0.12,4.84,2.26,9.27,6.37,11.83l39.56,26.04c9.16,5.72,20.61,6.75,30.65,2.77c4.57-1.81,7.53-6.17,7.53-11.09v-12.53l8.34,4.74
			l-0.08,15.21c-0.26,4.94-2.88,9.52-7.02,12.25c-15.91,10.49-36.02,11.05-52.5,1.46l-38.99-22.66
			c-12.5-7.28-20.01-20.26-20.1-34.72c-0.09-14.46,7.27-27.53,19.68-34.95l12.61-7.54v-2.48l-13.7,8.2
			c-13.06,7.82-20.81,21.57-20.72,36.79c0.09,15.22,8,28.89,21.16,36.55l38.99,22.66c8.15,4.75,17.16,7.11,26.16,7.11
			c9.95,0,19.87-2.89,28.58-8.64c4.69-3.1,7.67-8.3,7.97-13.96l0.09-16.51L487.2,260.19z"/>
	</g>
	<radialGradient id="SVGID_14_" cx="366.4829" cy="299.9963" r="83.8278" gradientUnits="userSpaceOnUse">
		<stop  offset="0" style="stop-color:#FFFFFF"/>
		<stop  offset="1" style="stop-color:#000000"/>
	</radialGradient>
	<path class="st31" d="M469.87,296.03l-0.18-2.12c2.77-0.23,5.52-0.74,8.17-1.5l0.59,2.05
		C475.66,295.26,472.78,295.79,469.87,296.03z M461.15,295.92c-2.9-0.32-5.77-0.93-8.53-1.8l0.64-2.03
		c2.63,0.83,5.37,1.41,8.12,1.71L461.15,295.92z M486.55,291.25l-0.98-1.89c1.09-0.56,2.17-1.19,3.21-1.84
		c1.21-0.76,2.25-1.79,3.03-2.98l1.78,1.17c-0.94,1.43-2.21,2.68-3.67,3.61C488.83,290,487.7,290.65,486.55,291.25z M444.6,290.69
		l-7.47-4.12l1.03-1.86l7.46,4.11L444.6,290.69z M429.67,282.46l-7.47-4.11l1.03-1.86l7.47,4.11L429.67,282.46z M412.78,273.09
		l-2.59-1.43c-1.68-0.94-3.28-2.01-4.76-3.19l1.33-1.67c1.39,1.11,2.9,2.12,4.47,3l2.59,1.43L412.78,273.09z M399.32,262.16
		c-1.76-2.37-3.18-4.96-4.24-7.69l1.99-0.77c0.99,2.56,2.32,4.98,3.96,7.19L399.32,262.16z M393.05,245.92
		c-0.1-1.01-0.15-2.03-0.16-3.06c0-2.05,0.15-3.9,0.46-5.72l2.1,0.35c-0.28,1.7-0.43,3.43-0.43,5.16c0.01,1.15,0.06,2.11,0.15,3.05
		L393.05,245.92z M397.9,229.66l-1.93-0.91c1.24-2.65,2.85-5.13,4.77-7.37l1.62,1.38C400.56,224.87,399.06,227.19,397.9,229.66z"/>
</g>
<g>
	<linearGradient id="SVGID_15_" gradientUnits="userSpaceOnUse" x1="365.2592" y1="354.8695" x2="447.1413" y2="700.2802">
		<stop  offset="0.0354" style="stop-color:#654DA0"/>
		<stop  offset="0.3495" style="stop-color:#6F57A4"/>
		<stop  offset="0.9559" style="stop-color:#8A6FB1"/>
		<stop  offset="1" style="stop-color:#8C71B2"/>
	</linearGradient>
	<path class="st32" d="M621.2,349.59l-18.42-15.03v50.46c29.93,25.59,33.96,70.5,8.9,101.01v0
		c-42.86,52.16-117.25,65.49-175.55,31.44L219.77,391.12l-114.53,67.87l238.31,137.13c99.94,57.51,227.14,30.63,295.28-62.38
		l5.02-6.85C684.67,471.17,674.72,393.25,621.2,349.59z"/>
	<path class="st30" d="M622.39,348.13l-19.06-15.55l-0.24,0.29v4.37l16.91,13.8c52.76,43.05,62.57,119.8,22.33,174.73l-5.02,6.85
		c-67.68,92.38-193.56,118.98-292.82,61.86L108.98,458.97l110.8-65.66L435.19,519.1c59.42,34.7,134.26,21.3,177.95-31.87
		c25.8-31.41,21.41-78.15-9.78-104.21l-0.25,0.3v4.49c27.64,25.05,31.01,67.96,7.13,97.03c-42.51,51.74-115.32,64.78-173.14,31.01
		L220.72,389.5l-0.96-0.56l-118.26,70.08l241.11,138.73c35.79,20.59,74.98,30.48,113.73,30.48c70.53,0,139.59-32.76,184-93.38
		l5.02-6.85C686.8,471.45,676.7,392.44,622.39,348.13z"/>
</g>
<g>
	<radialGradient id="SVGID_16_" cx="627.184" cy="719.7603" r="292.0503" gradientUnits="userSpaceOnUse">
		<stop  offset="0" style="stop-color:#FFFFFF"/>
		<stop  offset="1" style="stop-color:#000000"/>
	</radialGradient>
	<polygon class="st33" points="206.02,454.46 199.49,450.7 201.37,447.44 207.9,451.19 	"/>
	<radialGradient id="SVGID_17_" cx="627.1879" cy="719.7595" r="292.0515" gradientUnits="userSpaceOnUse">
		<stop  offset="0" style="stop-color:#FFFFFF"/>
		<stop  offset="1" style="stop-color:#000000"/>
	</radialGradient>
	<path class="st34" d="M485.18,582.57l-0.14-3.76c4.84-0.18,9.74-0.56,14.57-1.13l0.44,3.74C495.13,582,490.12,582.39,485.18,582.57
		z M470.26,582.52c-4.95-0.22-9.95-0.64-14.86-1.26l0.47-3.74c4.81,0.6,9.71,1.02,14.56,1.23L470.26,582.52z M514.79,579.06
		l-0.74-3.69c4.76-0.96,9.53-2.12,14.2-3.46l1.04,3.62C524.52,576.89,519.65,578.08,514.79,579.06z M440.69,578.81
		c-4.85-1.01-9.72-2.23-14.47-3.62l1.06-3.61c4.65,1.37,9.42,2.56,14.17,3.55L440.69,578.81z M543.44,570.86l-1.32-3.53
		c4.55-1.71,9.08-3.61,13.47-5.67l1.6,3.41C552.71,567.17,548.09,569.11,543.44,570.86z M412.09,570.41
		c-4.62-1.77-9.23-3.75-13.7-5.89l1.63-3.4c4.38,2.1,8.9,4.04,13.42,5.77L412.09,570.41z M570.43,558.2l-1.86-3.27
		c4.23-2.41,8.4-5.01,12.39-7.74l2.12,3.11C578.99,553.09,574.74,555.74,570.43,558.2z M385.21,557.56l-12.8-7.36l1.88-3.26
		l12.8,7.36L385.21,557.56z M359.61,542.83l-12.8-7.36l1.88-3.26l12.8,7.36L359.61,542.83z M595.05,541.43l-2.36-2.93
		c3.77-3.04,7.47-6.27,11-9.61l2.59,2.74C602.68,535.03,598.9,538.33,595.05,541.43z M334.01,528.1l-12.8-7.36l1.88-3.26l12.8,7.36
		L334.01,528.1z M616.68,520.94l-2.8-2.51c3.24-3.61,6.38-7.4,9.31-11.25l3,2.28C623.19,513.38,619.99,517.25,616.68,520.94z
		 M308.41,513.37l-12.8-7.36l1.88-3.26l12.8,7.36L308.41,513.37z M282.81,498.64l-12.8-7.36l1.88-3.26l12.8,7.36L282.81,498.64z
		 M634.66,497.42l-3.06-2.06c2.64-3.92,5.01-8.07,7.02-12.31l3.33,1.58C639.86,489.04,637.41,493.34,634.66,497.42z M257.22,483.91
		l-12.8-7.36l1.88-3.26l12.8,7.36L257.22,483.91z M646.71,470.89l-3.46-1.04c1.33-4.41,2.33-8.97,2.98-13.54l3.57,0.51
		C649.13,461.57,648.09,466.3,646.71,470.89z M231.62,469.18l-12.8-7.36l1.88-3.26l12.8,7.36L231.62,469.18z M647.16,442.47
		c-0.04-4.61-0.43-9.26-1.16-13.82l3.56-0.57c0.76,4.74,1.16,9.57,1.2,14.36L647.16,442.47z M642.8,415.15
		c-1.4-4.39-3.14-8.72-5.18-12.86l3.23-1.6c2.12,4.3,3.93,8.8,5.38,13.37L642.8,415.15z M630.56,390.35
		c-2.34-3.35-4.93-6.58-7.7-9.6l-1.06-0.94l2.4-2.69l1.19,1.06c3.01,3.26,5.7,6.62,8.13,10.1L630.56,390.35z"/>
	<radialGradient id="SVGID_18_" cx="627.188" cy="719.7608" r="292.0529" gradientUnits="userSpaceOnUse">
		<stop  offset="0" style="stop-color:#FFFFFF"/>
		<stop  offset="1" style="stop-color:#000000"/>
	</radialGradient>
	<polygon class="st35" points="615.78,373.54 610.98,369.25 610.78,364.63 617.92,371.14 	"/>
</g>
<g>
	<radialGradient id="SVGID_19_" cx="386.6759" cy="461.3253" r="7.2713" gradientUnits="userSpaceOnUse">
		<stop  offset="0" style="stop-color:#EEEBF0"/>
		<stop  offset="0.5808" style="stop-color:#D4D2D9"/>
		<stop  offset="0.8925" style="stop-color:#ABABBC"/>
		<stop  offset="1" style="stop-color:#9D9EB3"/>
	</radialGradient>
	<path class="st36" d="M383.01,460.42l0.63,9.83c0.09,1.47,1.72,2.31,2.98,1.54l6.22-3.82c0.66-0.4,1.02-1.15,0.92-1.92l-1.26-9.78
		c-0.19-1.44-1.83-2.19-3.04-1.37l-5.59,3.78C383.29,459.06,382.96,459.73,383.01,460.42z"/>
	<radialGradient id="SVGID_20_" cx="386.3917" cy="460.6624" r="6.9802" gradientUnits="userSpaceOnUse">
		<stop  offset="0" style="stop-color:#FFFFFF"/>
		<stop  offset="1" style="stop-color:#000000"/>
	</radialGradient>
	<path class="st37" d="M384.71,471.62l-0.63-9.83c-0.04-0.69,0.28-1.36,0.86-1.75l5.59-3.78c0.61-0.41,1.34-0.42,1.93-0.14
		c-0.28-1.35-1.83-2.02-3-1.23l-5.59,3.78c-0.58,0.39-0.9,1.05-0.86,1.75l0.63,9.83c0.05,0.76,0.51,1.35,1.12,1.64
		C384.74,471.8,384.72,471.72,384.71,471.62z"/>
	<path class="st38" d="M114.54,457.53l181.14,104.62c23.82,13.59,53.05,13.52,76.8-0.19l32.57-18.8c3.3-1.91,3.31-6.67,0.01-8.59
		L188.94,408.47c-1.54-0.89-3.44-0.89-4.98,0.01l-69.46,40.46C111.2,450.86,111.22,455.63,114.54,457.53z"/>
	<polygon class="st39" points="287.52,537.05 313.08,522.2 286.33,517.34 	"/>
	<polygon class="st39" points="143.03,455.53 168.59,440.68 141.85,435.82 	"/>
	<g>
		<linearGradient id="SVGID_21_" gradientUnits="userSpaceOnUse" x1="180.2549" y1="476.7244" x2="153.2166" y2="440.493">
			<stop  offset="0.0556" style="stop-color:#2E2F32"/>
			<stop  offset="0.1116" style="stop-color:#393B3E"/>
			<stop  offset="0.2295" style="stop-color:#585A60"/>
			<stop  offset="0.2525" style="stop-color:#5E6167"/>
			<stop  offset="0.4798" style="stop-color:#1F1F21"/>
			<stop  offset="1" style="stop-color:#47494E"/>
		</linearGradient>
		<path class="st40" d="M183.82,467.19c0,4.77-1.65,8.15-4.32,9.78c-0.08,0.05-8.45,4.9-8.54,4.94c-2.78,1.56-1-1.98-5.23-4.42
			c-8.51-4.91-15.41-16.81-15.41-26.58c0-4.83-4.46-4.87-1.73-6.48c0.08-0.05,8.99-4.98,9.06-5.02c2.78-1.5,6.57-1.23,10.76,1.19
			C176.92,445.52,183.82,457.42,183.82,467.19z"/>
		<linearGradient id="SVGID_22_" gradientUnits="userSpaceOnUse" x1="144.0759" y1="463.3575" x2="174.8939" y2="463.3575">
			<stop  offset="0.0354" style="stop-color:#1F1F21"/>
			<stop  offset="0.1946" style="stop-color:#26282A"/>
			<stop  offset="0.5032" style="stop-color:#393B3E"/>
			<stop  offset="0.9269" style="stop-color:#585B60"/>
			<stop  offset="1" style="stop-color:#5E6167"/>
		</linearGradient>
		<path class="st41" d="M174.89,472.25c0,9.77-6.9,13.7-15.41,8.79c-8.51-4.91-15.41-16.81-15.41-26.58c0-9.77,6.9-13.7,15.41-8.79
			C168,450.59,174.89,462.49,174.89,472.25z"/>
		<radialGradient id="SVGID_23_" cx="162.6576" cy="462.8373" r="16.6473" gradientUnits="userSpaceOnUse">
			<stop  offset="0" style="stop-color:#FFFFFF"/>
			<stop  offset="1" style="stop-color:#000000"/>
		</radialGradient>
		<path class="st42" d="M160.22,445.31c-4.08-2.36-7.79-2.67-10.54-1.29c2.57-0.72,5.76-0.18,9.21,1.81
			c8.51,4.91,15.41,16.81,15.41,26.58c0,5.08-1.87,8.58-4.87,10.08c3.76-1.05,6.2-4.8,6.2-10.6
			C175.63,462.12,168.73,450.22,160.22,445.31z"/>
		<linearGradient id="SVGID_24_" gradientUnits="userSpaceOnUse" x1="148.1298" y1="463.6111" x2="171.863" y2="463.6111">
			<stop  offset="0" style="stop-color:#BDBEC0"/>
			<stop  offset="1" style="stop-color:#E6E7E7"/>
		</linearGradient>
		<path class="st43" d="M160,449.99c-6.55-3.78-11.87-0.75-11.87,6.77s5.31,16.68,11.87,20.47c6.55,3.78,11.87,0.75,11.87-6.77
			C171.86,462.94,166.55,453.78,160,449.99z M164.53,464.99l3.68-0.31c0.55-0.05,1.26,0.69,1.43,1.49c0.23,1.09,0.35,2.17,0.35,3.22
			s-0.12,1.98-0.35,2.81c-0.17,0.61-0.88,0.52-1.43-0.16l-3.68-4.56c-0.32-0.39-0.52-0.9-0.5-1.31c0-0.07,0-0.14,0-0.22
			c0-0.07,0-0.15,0-0.22C164.01,465.29,164.21,465.01,164.53,464.99z M166.88,461.26l-3.68,0.31c-0.32,0.03-0.71-0.2-1.02-0.6
			c-0.11-0.14-0.22-0.28-0.33-0.41c-0.33-0.39-0.53-0.9-0.53-1.32v-4.86c0-0.74,0.61-0.92,1.23-0.37c1.74,1.54,3.3,3.49,4.53,5.63
			C167.54,460.41,167.43,461.22,166.88,461.26z M158.67,452.84v4.86c0,0.42-0.2,0.71-0.53,0.72c-0.11,0-0.22,0.01-0.33,0.03
			c-0.31,0.05-0.7-0.18-1.02-0.57l-3.68-4.56c-0.55-0.68-0.66-1.62-0.21-1.88c1.23-0.71,2.79-0.87,4.53-0.39
			C158.06,451.22,158.67,452.11,158.67,452.84z M151.78,455.19l3.68,4.56c0.32,0.39,0.52,0.9,0.5,1.31c0,0.07,0,0.14,0,0.22
			s0,0.15,0,0.22c0.02,0.43-0.18,0.7-0.5,0.73l-3.68,0.31c-0.55,0.05-1.26-0.69-1.43-1.49c-0.23-1.09-0.35-2.17-0.35-3.22
			s0.12-1.98,0.35-2.81C150.52,454.42,151.23,454.51,151.78,455.19z M153.12,465.96l3.68-0.31c0.32-0.03,0.71,0.2,1.02,0.6
			c0.11,0.14,0.22,0.28,0.33,0.41c0.33,0.39,0.53,0.9,0.53,1.32v4.86c0,0.74-0.61,0.92-1.23,0.37c-1.74-1.54-3.3-3.49-4.53-5.63
			C152.45,466.81,152.56,466.01,153.12,465.96z M161.33,474.38v-4.86c0-0.42,0.2-0.71,0.53-0.72c0.11,0,0.22-0.01,0.33-0.03
			c0.31-0.05,0.7,0.18,1.02,0.57l3.68,4.56c0.55,0.68,0.66,1.62,0.21,1.88c-1.23,0.71-2.79,0.87-4.53,0.39
			C161.94,476.01,161.33,475.12,161.33,474.38z"/>
		<linearGradient id="SVGID_25_" gradientUnits="userSpaceOnUse" x1="147.3904" y1="463.9069" x2="171.1236" y2="463.9069">
			<stop  offset="0.0354" style="stop-color:#9D9EB3"/>
			<stop  offset="0.5808" style="stop-color:#D4D2D9"/>
			<stop  offset="1" style="stop-color:#EEEBF0"/>
		</linearGradient>
		<path class="st44" d="M159.26,450.29c-6.55-3.78-11.87-0.75-11.87,6.77s5.31,16.68,11.87,20.47c6.55,3.78,11.87,0.75,11.87-6.77
			C171.12,463.24,165.81,454.07,159.26,450.29z M163.79,465.28l3.68-0.31c0.55-0.05,1.26,0.69,1.43,1.49
			c0.23,1.09,0.35,2.17,0.35,3.22s-0.12,1.98-0.35,2.81c-0.17,0.61-0.88,0.52-1.43-0.16l-3.68-4.56c-0.32-0.39-0.52-0.9-0.5-1.31
			c0-0.07,0-0.14,0-0.22s0-0.15,0-0.22C163.27,465.59,163.47,465.31,163.79,465.28z M166.14,461.56l-3.68,0.31
			c-0.32,0.03-0.71-0.2-1.02-0.6c-0.11-0.14-0.22-0.28-0.33-0.41c-0.33-0.38-0.53-0.9-0.53-1.32v-4.86c0-0.74,0.61-0.92,1.23-0.37
			c1.74,1.54,3.3,3.49,4.53,5.63C166.8,460.71,166.69,461.51,166.14,461.56z M157.93,453.14v4.86c0,0.42-0.2,0.71-0.53,0.72
			c-0.11,0-0.22,0.01-0.33,0.03c-0.31,0.05-0.7-0.18-1.02-0.57l-3.68-4.56c-0.55-0.68-0.66-1.62-0.21-1.88
			c1.23-0.71,2.79-0.87,4.53-0.39C157.32,451.51,157.93,452.4,157.93,453.14z M151.04,455.49l3.68,4.56c0.32,0.39,0.52,0.9,0.5,1.31
			c0,0.07,0,0.14,0,0.22s0,0.15,0,0.22c0.02,0.43-0.18,0.71-0.5,0.73l-3.68,0.31c-0.55,0.05-1.26-0.69-1.43-1.49
			c-0.23-1.09-0.35-2.17-0.35-3.22s0.12-1.98,0.35-2.81C149.78,454.71,150.49,454.8,151.04,455.49z M152.38,466.25l3.68-0.31
			c0.32-0.03,0.71,0.2,1.02,0.6c0.11,0.14,0.22,0.28,0.33,0.41c0.33,0.39,0.53,0.9,0.53,1.32v4.86c0,0.74-0.61,0.92-1.23,0.37
			c-1.74-1.54-3.3-3.49-4.53-5.63C151.71,467.11,151.82,466.3,152.38,466.25z M160.59,474.67v-4.86c0-0.42,0.2-0.71,0.53-0.72
			c0.11,0,0.22-0.01,0.33-0.03c0.31-0.05,0.7,0.18,1.02,0.57l3.68,4.56c0.55,0.68,0.66,1.62,0.21,1.88
			c-1.23,0.71-2.79,0.87-4.53,0.39C161.2,476.3,160.59,475.41,160.59,474.67z"/>
	</g>
	<g>
		<linearGradient id="SVGID_26_" gradientUnits="userSpaceOnUse" x1="326.4416" y1="560.538" x2="299.4033" y2="524.3067">
			<stop  offset="0.0556" style="stop-color:#2E2F32"/>
			<stop  offset="0.1116" style="stop-color:#393B3E"/>
			<stop  offset="0.2295" style="stop-color:#585A60"/>
			<stop  offset="0.2525" style="stop-color:#5E6167"/>
			<stop  offset="0.4798" style="stop-color:#1F1F21"/>
			<stop  offset="1" style="stop-color:#47494E"/>
		</linearGradient>
		<path class="st45" d="M330,551c0,4.77-1.65,8.15-4.32,9.78c-0.08,0.05-8.45,4.9-8.54,4.94c-2.78,1.56-1-1.98-5.23-4.42
			c-8.51-4.91-15.41-16.81-15.41-26.58c0-4.83-4.46-4.87-1.73-6.48c0.08-0.04,8.99-4.98,9.06-5.02c2.78-1.5,6.57-1.23,10.76,1.19
			C323.11,529.34,330,541.24,330,551z"/>
		<linearGradient id="SVGID_27_" gradientUnits="userSpaceOnUse" x1="290.2628" y1="547.1711" x2="321.0806" y2="547.1711">
			<stop  offset="0.0354" style="stop-color:#1F1F21"/>
			<stop  offset="0.1946" style="stop-color:#26282A"/>
			<stop  offset="0.5032" style="stop-color:#393B3E"/>
			<stop  offset="0.9269" style="stop-color:#585B60"/>
			<stop  offset="1" style="stop-color:#5E6167"/>
		</linearGradient>
		<path class="st46" d="M321.08,556.07c0,9.77-6.9,13.7-15.41,8.79c-8.51-4.91-15.41-16.81-15.41-26.58c0-9.77,6.9-13.7,15.41-8.79
			C314.18,534.4,321.08,546.3,321.08,556.07z"/>
		<radialGradient id="SVGID_28_" cx="308.8443" cy="546.6509" r="16.6472" gradientUnits="userSpaceOnUse">
			<stop  offset="0" style="stop-color:#FFFFFF"/>
			<stop  offset="1" style="stop-color:#000000"/>
		</radialGradient>
		<path class="st47" d="M306.41,529.12c-4.08-2.36-7.79-2.67-10.54-1.29c2.57-0.72,5.76-0.18,9.21,1.81
			c8.51,4.91,15.41,16.81,15.41,26.58c0,5.08-1.87,8.58-4.87,10.08c3.76-1.05,6.2-4.8,6.2-10.6
			C321.82,545.93,314.92,534.03,306.41,529.12z"/>
		<linearGradient id="SVGID_29_" gradientUnits="userSpaceOnUse" x1="294.3166" y1="547.4248" x2="318.0498" y2="547.4248">
			<stop  offset="0" style="stop-color:#BDBEC0"/>
			<stop  offset="1" style="stop-color:#E6E7E7"/>
		</linearGradient>
		<path class="st48" d="M306.18,533.81c-6.55-3.78-11.87-0.75-11.87,6.77c0,7.52,5.31,16.68,11.87,20.47
			c6.55,3.78,11.87,0.75,11.87-6.77C318.05,546.76,312.74,537.59,306.18,533.81z M310.72,548.8l3.68-0.31
			c0.55-0.05,1.26,0.69,1.43,1.49c0.23,1.09,0.35,2.17,0.35,3.22c0,1.04-0.12,1.98-0.35,2.81c-0.17,0.61-0.88,0.52-1.43-0.16
			l-3.68-4.56c-0.32-0.39-0.52-0.9-0.5-1.31c0-0.07,0-0.14,0-0.22c0-0.07,0-0.15,0-0.22C310.2,549.1,310.4,548.83,310.72,548.8z
			 M313.06,545.08l-3.68,0.31c-0.32,0.03-0.71-0.2-1.02-0.6c-0.11-0.14-0.22-0.28-0.33-0.41c-0.33-0.39-0.53-0.9-0.53-1.32v-4.86
			c0-0.74,0.61-0.92,1.23-0.37c1.74,1.54,3.3,3.49,4.53,5.63C313.73,544.22,313.62,545.03,313.06,545.08z M304.85,536.66v4.86
			c0,0.42-0.2,0.71-0.53,0.72c-0.11,0-0.22,0.01-0.33,0.03c-0.31,0.05-0.7-0.18-1.02-0.57l-3.68-4.56
			c-0.55-0.68-0.66-1.62-0.21-1.88c1.23-0.71,2.79-0.87,4.53-0.39C304.24,535.03,304.85,535.92,304.85,536.66z M297.97,539
			l3.68,4.56c0.32,0.39,0.52,0.9,0.5,1.31c0,0.07,0,0.14,0,0.22c0,0.07,0,0.15,0,0.22c0.02,0.43-0.18,0.71-0.5,0.73l-3.68,0.31
			c-0.55,0.05-1.26-0.69-1.43-1.49c-0.23-1.09-0.35-2.17-0.35-3.22s0.12-1.98,0.35-2.81C296.71,538.23,297.42,538.32,297.97,539z
			 M299.3,549.77l3.68-0.31c0.32-0.03,0.71,0.2,1.02,0.6c0.11,0.14,0.22,0.28,0.33,0.41c0.33,0.38,0.53,0.9,0.53,1.32v4.86
			c0,0.74-0.61,0.92-1.23,0.38c-1.74-1.54-3.3-3.49-4.53-5.63C298.64,550.63,298.75,549.82,299.3,549.77z M307.51,558.19v-4.86
			c0-0.42,0.2-0.71,0.53-0.72c0.11,0,0.22-0.01,0.33-0.03c0.31-0.05,0.7,0.18,1.02,0.57l3.68,4.56c0.55,0.68,0.66,1.62,0.21,1.88
			c-1.23,0.71-2.79,0.87-4.53,0.39C308.12,559.82,307.51,558.93,307.51,558.19z"/>
		<linearGradient id="SVGID_30_" gradientUnits="userSpaceOnUse" x1="293.5772" y1="547.7206" x2="317.3104" y2="547.7206">
			<stop  offset="0.0354" style="stop-color:#9D9EB3"/>
			<stop  offset="0.5808" style="stop-color:#D4D2D9"/>
			<stop  offset="1" style="stop-color:#EEEBF0"/>
		</linearGradient>
		<path class="st49" d="M305.44,534.1c-6.55-3.78-11.87-0.75-11.87,6.77c0,7.52,5.31,16.68,11.87,20.47
			c6.55,3.78,11.87,0.75,11.87-6.77C317.31,547.05,312,537.89,305.44,534.1z M309.98,549.1l3.68-0.31c0.55-0.05,1.26,0.69,1.43,1.49
			c0.23,1.09,0.35,2.17,0.35,3.22c0,1.04-0.12,1.98-0.35,2.81c-0.17,0.61-0.88,0.52-1.43-0.16l-3.68-4.56
			c-0.32-0.39-0.52-0.9-0.5-1.31c0-0.07,0-0.14,0-0.22c0-0.07,0-0.15,0-0.22C309.46,549.4,309.66,549.12,309.98,549.1z
			 M312.32,545.37l-3.68,0.31c-0.32,0.03-0.71-0.2-1.02-0.6c-0.11-0.14-0.22-0.28-0.33-0.41c-0.33-0.39-0.53-0.9-0.53-1.32v-4.86
			c0-0.74,0.61-0.92,1.23-0.37c1.74,1.54,3.3,3.49,4.53,5.63C312.99,544.52,312.88,545.33,312.32,545.37z M304.11,536.95v4.86
			c0,0.42-0.2,0.71-0.53,0.72c-0.11,0-0.22,0.01-0.33,0.03c-0.31,0.05-0.7-0.18-1.02-0.57l-3.68-4.56
			c-0.55-0.68-0.66-1.62-0.21-1.88c1.23-0.71,2.79-0.87,4.53-0.39C303.5,535.33,304.11,536.21,304.11,536.95z M297.23,539.3
			l3.68,4.56c0.32,0.39,0.52,0.9,0.5,1.31c0,0.07,0,0.14,0,0.22c0,0.07,0,0.15,0,0.22c0.02,0.43-0.18,0.7-0.5,0.73l-3.68,0.31
			c-0.55,0.05-1.26-0.69-1.43-1.49c-0.23-1.09-0.35-2.17-0.35-3.22s0.12-1.98,0.35-2.81C295.97,538.53,296.68,538.61,297.23,539.3z
			 M298.56,550.07l3.68-0.31c0.32-0.03,0.71,0.2,1.02,0.6c0.11,0.14,0.22,0.28,0.33,0.41c0.33,0.39,0.53,0.9,0.53,1.32v4.86
			c0,0.74-0.61,0.92-1.23,0.37c-1.74-1.54-3.3-3.49-4.53-5.63C297.9,550.92,298.01,550.11,298.56,550.07z M306.77,558.49v-4.86
			c0-0.42,0.2-0.71,0.53-0.72c0.11,0,0.22-0.01,0.33-0.03c0.31-0.05,0.7,0.18,1.02,0.57l3.68,4.56c0.55,0.68,0.66,1.62,0.21,1.88
			c-1.23,0.71-2.79,0.87-4.53,0.39C307.38,560.12,306.77,559.23,306.77,558.49z"/>
	</g>
	<radialGradient id="SVGID_31_" cx="267.8015" cy="365.6095" r="227.1302" gradientUnits="userSpaceOnUse">
		<stop  offset="0" style="stop-color:#EEEBF0"/>
		<stop  offset="0.5808" style="stop-color:#D4D2D9"/>
		<stop  offset="0.8925" style="stop-color:#ABABBC"/>
		<stop  offset="1" style="stop-color:#9D9EB3"/>
	</radialGradient>
	<path class="st50" d="M405.69,501.6l-59.4-91.85c-0.86-1.32-2.02-2.42-3.39-3.21l-158.39-91.19c-3.01-1.74-6.71-1.78-9.77-0.11
		l-44.66,24.45c-2.05,1.12-3.64,2.93-4.49,5.1l-13.64,29.05c-0.43,1.1-0.67,2.27-0.69,3.45l-1.03,53.57
		c-0.07,3.66,1.87,7.06,5.05,8.87l27.94,15.84c-0.26-1.52-0.4-3.02-0.4-4.47c0-11.05,7.81-15.5,17.44-9.94
		c9.63,5.56,17.44,19.03,17.44,30.08c0,1.33-0.12,2.55-0.33,3.69l110.14,62.13c-0.07-0.75-0.11-1.5-0.11-2.24
		c0-11.05,7.81-15.5,17.44-9.94c9.63,5.56,17.44,19.03,17.44,30.08c0,0.61-0.03,1.19-0.07,1.76l6.53,3.7
		c2.88,1.63,6.37,1.73,9.33,0.26l63.67-31.46c3.4-1.68,5.56-5.15,5.56-8.94v-13.24C407.3,505.11,406.74,503.22,405.69,501.6z"/>
	<path class="st51" d="M333.64,533.28l-8.7-26.63l-35.93-68.11c-1.36-2.79-3.53-5.11-6.22-6.65l-155.75-89.61
		c-0.6,0.76-1.09,1.6-1.45,2.51l-13.64,29.05c-0.43,1.1-0.67,2.27-0.69,3.45l-1.03,53.57c-0.07,3.66,1.87,7.06,5.05,8.87
		l27.94,15.84c-0.26-1.52-0.4-3.02-0.4-4.47c0-11.05,7.81-15.5,17.44-9.94c9.63,5.56,17.44,19.03,17.44,30.08
		c0,1.33-0.12,2.55-0.33,3.69l110.14,62.13c-0.07-0.75-0.11-1.5-0.11-2.24c0-11.05,7.81-15.5,17.44-9.94
		c9.63,5.56,17.44,19.03,17.44,30.08c0,0.61-0.03,1.19-0.07,1.76l6.53,3.7c2.04,1.16,4.4,1.53,6.66,1.13v-20.83
		C335.4,538.13,334.8,535.59,333.64,533.28z"/>
	<radialGradient id="SVGID_32_" cx="233.1228" cy="451.7165" r="106.9929" gradientUnits="userSpaceOnUse">
		<stop  offset="0" style="stop-color:#FFFFFF"/>
		<stop  offset="1" style="stop-color:#000000"/>
	</radialGradient>
	<path class="st52" d="M335.63,533.06l-8.7-26.63l-35.93-68.11c-1.36-2.79-3.53-5.11-6.22-6.65l-155.75-89.61
		c-0.53,0.68,0.33,1.12-0.01,1.92l154.2,88.71c2.7,1.54,4.86,3.86,6.22,6.65l35.93,68.11l8.7,26.63c1.15,2.31,1.75,4.85,1.75,7.43
		v19.59c0.96,0.11,0.61,0.38,1.56,0.22v-20.83C337.39,537.91,336.79,535.37,335.63,533.06z"/>
	<path class="st53" d="M312.91,464.26l15.18-5.5c9.91-3.59,19.24-8.61,27.69-14.91l4.02-2.99c1.77-1.32,4.29-0.88,5.51,0.96
		l20.91,31.48c1.17,1.77,0.7,4.15-1.06,5.33l-10.66,7.15c-8.25,5.53-17.16,10.03-26.51,13.38l-16.7,5.98
		c-1.87,0.67-3.95-0.19-4.79-1.99l-15.75-33.63C309.77,467.47,310.78,465.03,312.91,464.26z"/>
	<linearGradient id="SVGID_33_" gradientUnits="userSpaceOnUse" x1="312.6431" y1="473.1312" x2="385.5284" y2="473.1312">
		<stop  offset="0" style="stop-color:#1A144C"/>
		<stop  offset="1" style="stop-color:#353985"/>
	</linearGradient>
	<path class="st54" d="M315.07,465.06l14.46-5.24c9.44-3.42,18.33-8.21,26.38-14.21l3.83-2.85c1.69-1.26,4.09-0.84,5.25,0.91
		l19.92,29.99c1.12,1.68,0.67,3.96-1.01,5.08l-10.16,6.81c-7.86,5.27-16.35,9.55-25.26,12.75l-15.91,5.7
		c-1.78,0.64-3.76-0.18-4.56-1.9l-15.01-32.04C312.08,468.12,313.04,465.8,315.07,465.06z"/>
	<path class="st53" d="M279.53,455.57l0.88,29.55c0.02,0.74,0.43,1.42,1.08,1.79l35.5,20.33v-5.01l-18.12-39.78l-16.17-8.82
		C281.24,452.84,279.48,453.92,279.53,455.57z"/>
	<linearGradient id="SVGID_34_" gradientUnits="userSpaceOnUse" x1="281.4163" y1="477.222" x2="308.1121" y2="477.222">
		<stop  offset="0" style="stop-color:#1A144C"/>
		<stop  offset="1" style="stop-color:#353985"/>
	</linearGradient>
	<polygon class="st55" points="281.42,454.79 282.31,484.73 308.11,499.66 307.41,484.84 298.31,464 	"/>
	<linearGradient id="SVGID_35_" gradientUnits="userSpaceOnUse" x1="389.1228" y1="559.7662" x2="377.5984" y2="548.7906">
		<stop  offset="0.0354" style="stop-color:#1F1F21"/>
		<stop  offset="0.1946" style="stop-color:#26282A"/>
		<stop  offset="0.5032" style="stop-color:#393B3E"/>
		<stop  offset="0.9269" style="stop-color:#585B60"/>
		<stop  offset="1" style="stop-color:#5E6167"/>
	</linearGradient>
	<path class="st56" d="M320.6,544.38l12.99,6.96c4.74,2.28,10.23,2.46,15.11,0.51l9.88-3.96c15.39-6.16,29.64-15.74,43.06-24.43
		l6.25-5.01l2,0.14l-0.29,13.26l-1.99,1.97c-17.56,13.95-37.54,24.56-58.93,31.3h0c-4.88,1.54-10.18,1.02-14.66-1.44l-12.52-7.35
		L320.6,544.38z"/>
	<linearGradient id="SVGID_36_" gradientUnits="userSpaceOnUse" x1="332.2314" y1="545.3966" x2="353.2002" y2="545.3966">
		<stop  offset="0" style="stop-color:#BDBEC0"/>
		<stop  offset="1" style="stop-color:#E6E7E7"/>
	</linearGradient>
	<path class="st57" d="M332.64,538.22L332.64,538.22c3.38,2.07,7.57,2.3,11.16,0.61l0,0c3.06-1.44,6.69,0.18,7.65,3.43l1.75,5.9
		l-9.07,3.59c-3.03,1.2-6.42,1.08-9.36-0.31l-2.53-1.2L332.64,538.22z"/>
	<linearGradient id="SVGID_37_" gradientUnits="userSpaceOnUse" x1="343.1309" y1="550.1177" x2="342.6515" y2="534.5851">
		<stop  offset="0" style="stop-color:#9B9C9C"/>
		<stop  offset="0.0464" style="stop-color:#A1A1A1"/>
		<stop  offset="0.3435" style="stop-color:#C5C4C3"/>
		<stop  offset="0.6119" style="stop-color:#E2E0E0"/>
		<stop  offset="0.8398" style="stop-color:#F5F4F4"/>
		<stop  offset="1" style="stop-color:#FFFFFF"/>
	</linearGradient>
	<path class="st58" d="M332.64,538.22L332.64,538.22c3.38,2.07,7.57,2.3,11.16,0.61l0,0c3.06-1.44,6.69,0.18,7.65,3.43l1.75,5.9
		l-10.5-0.49C332.43,545.53,332.64,538.22,332.64,538.22z"/>
	<linearGradient id="SVGID_38_" gradientUnits="userSpaceOnUse" x1="400.4138" y1="513.6486" x2="408.3646" y2="513.6486">
		<stop  offset="0" style="stop-color:#BDBEC0"/>
		<stop  offset="1" style="stop-color:#E6E7E7"/>
	</linearGradient>
	<path class="st59" d="M401.22,514.51l-0.8,8.61c0,0,7.37-4.57,7.81-6.34c0.44-1.77-0.29-12.61-0.29-12.61l-2.13,2.58l0,0
		C403.19,508.52,401.51,511.37,401.22,514.51z"/>
	<linearGradient id="SVGID_39_" gradientUnits="userSpaceOnUse" x1="400.4138" y1="513.6486" x2="407.932" y2="513.6486">
		<stop  offset="0" style="stop-color:#9B9C9C"/>
		<stop  offset="0.0464" style="stop-color:#A1A1A1"/>
		<stop  offset="0.3435" style="stop-color:#C5C4C3"/>
		<stop  offset="0.6119" style="stop-color:#E2E0E0"/>
		<stop  offset="0.8398" style="stop-color:#F5F4F4"/>
		<stop  offset="1" style="stop-color:#FFFFFF"/>
	</linearGradient>
	<path class="st60" d="M401.22,514.51l-0.8,8.61c0,0,4.71-7.99,5.16-9.76c0.44-1.77,2.36-9.19,2.36-9.19l-2.13,2.58l0,0
		C403.19,508.52,401.51,511.37,401.22,514.51z"/>
	<path class="st53" d="M386.22,473.29l-2.1-3.16c-0.16,1.18-0.8,2.29-1.86,3.01l-11.99,8.03c-9.28,6.22-19.29,11.27-29.81,15.04
		l-14.74,5.28l0.77,1.65c0.84,1.8,2.92,2.66,4.79,1.99l16.7-5.98c9.35-3.35,18.26-7.85,26.51-13.38l10.66-7.14
		C386.91,477.45,387.39,475.06,386.22,473.29z"/>
	<linearGradient id="SVGID_40_" gradientUnits="userSpaceOnUse" x1="312.6612" y1="457.7011" x2="380.9228" y2="457.7011">
		<stop  offset="0" style="stop-color:#9B9C9C"/>
		<stop  offset="0.022" style="stop-color:#959595"/>
		<stop  offset="0.2281" style="stop-color:#676766"/>
		<stop  offset="0.424" style="stop-color:#454544"/>
		<stop  offset="0.6045" style="stop-color:#2C2D2C"/>
		<stop  offset="0.7663" style="stop-color:#181919"/>
		<stop  offset="0.9036" style="stop-color:#080908"/>
		<stop  offset="1" style="stop-color:#010101"/>
	</linearGradient>
	<path class="st61" d="M380.92,467.66l-15.93-23.98c-1.17-1.75-3.56-2.17-5.25-0.91l-3.83,2.85c-8.05,6-16.94,10.78-26.38,14.21
		l-14.46,5.24c-1.87,0.68-2.81,2.7-2.24,4.54c8.89,2.38,19.5,3.76,30.91,3.76C357.97,473.37,370.97,471.21,380.92,467.66z"/>
	<linearGradient id="SVGID_41_" gradientUnits="userSpaceOnUse" x1="400.4935" y1="462.256" x2="210.8468" y2="360.6092">
		<stop  offset="0" style="stop-color:#D2D3D4"/>
		<stop  offset="0.0277" style="stop-color:#C4C5C6"/>
		<stop  offset="0.2326" style="stop-color:#7F7E7E"/>
		<stop  offset="0.4274" style="stop-color:#514F4F"/>
		<stop  offset="0.6068" style="stop-color:#323131"/>
		<stop  offset="0.7676" style="stop-color:#1B1B1B"/>
		<stop  offset="0.9041" style="stop-color:#090909"/>
		<stop  offset="1" style="stop-color:#010101"/>
	</linearGradient>
	<polygon class="st62" points="292.53,432.71 338.72,406.41 180.48,316.01 134.29,341.87 	"/>
	<linearGradient id="SVGID_42_" gradientUnits="userSpaceOnUse" x1="311.5555" y1="502.4953" x2="293.0846" y2="513.9814">
		<stop  offset="0" style="stop-color:#6A6A6A"/>
		<stop  offset="0.2404" style="stop-color:#928F8F"/>
		<stop  offset="0.4783" style="stop-color:#BAB7B7"/>
		<stop  offset="0.6916" style="stop-color:#DAD8D8"/>
		<stop  offset="0.8727" style="stop-color:#F2F1F1"/>
		<stop  offset="1" style="stop-color:#FFFFFF"/>
	</linearGradient>
	<path class="st63" d="M312.75,504.26c2.47,1.51-12.65,8.21-18.57,9.44c-5.93,1.22-0.92,2.71-1.1,1.72
		C292.24,510.78,304.45,499.17,312.75,504.26z"/>
	<radialGradient id="SVGID_43_" cx="300.5001" cy="497.5036" r="9.7649" gradientUnits="userSpaceOnUse">
		<stop  offset="0" style="stop-color:#EEEBF0"/>
		<stop  offset="0.5808" style="stop-color:#D4D2D9"/>
		<stop  offset="0.8925" style="stop-color:#ABABBC"/>
		<stop  offset="1" style="stop-color:#9D9EB3"/>
	</radialGradient>
	<path class="st64" d="M295,496.06l0.99,11.72c0.15,1.79,2.02,2.9,3.66,2.19l12.74-3.84c1.08-0.47,1.72-1.61,1.55-2.78l-4.2-10.97
		c-0.23-1.61-1.86-2.62-3.41-2.12l-9.53,3.09C295.64,493.72,294.9,494.85,295,496.06z"/>
	<radialGradient id="SVGID_44_" cx="298.4249" cy="489.4113" r="11.2954" gradientUnits="userSpaceOnUse">
		<stop  offset="0" style="stop-color:#FFFFFF"/>
		<stop  offset="1" style="stop-color:#000000"/>
	</radialGradient>
	<path class="st65" d="M298.45,509.2l-0.99-11.72c-0.1-1.22,0.65-2.34,1.81-2.72l9.53-3.09c0.22-0.07,0.44-0.1,0.66-0.12
		c-0.57-1.11-1.87-1.71-3.13-1.3l-9.53,3.09c-1.16,0.38-1.91,1.5-1.81,2.72l0.99,11.72c0.12,1.47,1.4,2.46,2.76,2.38
		C298.6,509.87,298.48,509.55,298.45,509.2z"/>
	<linearGradient id="SVGID_45_" gradientUnits="userSpaceOnUse" x1="224.0698" y1="505.1634" x2="233.0954" y2="490.3088">
		<stop  offset="0" style="stop-color:#9B9C9C"/>
		<stop  offset="0.0464" style="stop-color:#A1A1A1"/>
		<stop  offset="0.3435" style="stop-color:#C5C4C3"/>
		<stop  offset="0.6119" style="stop-color:#E2E0E0"/>
		<stop  offset="0.8398" style="stop-color:#F5F4F4"/>
		<stop  offset="1" style="stop-color:#FFFFFF"/>
	</linearGradient>
	<path class="st66" d="M293.38,523.2l-120.95-69.35c3.26,5.52,5.29,11.76,5.29,17.39c0,1.33-0.12,2.55-0.33,3.69l110.14,62.13
		c-0.07-0.75-0.11-1.5-0.11-2.24C287.41,528.81,289.72,524.76,293.38,523.2z"/>
	<linearGradient id="SVGID_46_" gradientUnits="userSpaceOnUse" x1="121.7328" y1="445.3299" x2="129.7909" y2="432.0677">
		<stop  offset="0" style="stop-color:#9B9C9C"/>
		<stop  offset="0.0464" style="stop-color:#A1A1A1"/>
		<stop  offset="0.3435" style="stop-color:#C5C4C3"/>
		<stop  offset="0.6119" style="stop-color:#E2E0E0"/>
		<stop  offset="0.8398" style="stop-color:#F5F4F4"/>
		<stop  offset="1" style="stop-color:#FFFFFF"/>
	</linearGradient>
	<path class="st67" d="M142.83,451.1c0-5.6,2-9.5,5.23-11.26l-37.59-21.62l-0.24,12.65c-0.07,3.66,1.87,7.06,5.05,8.87l27.94,15.84
		C142.98,454.06,142.83,452.56,142.83,451.1z"/>
	<linearGradient id="SVGID_47_" gradientUnits="userSpaceOnUse" x1="320.9351" y1="542.8259" x2="409.9292" y2="542.8259">
		<stop  offset="0.0556" style="stop-color:#2E2F32"/>
		<stop  offset="0.1116" style="stop-color:#393B3E"/>
		<stop  offset="0.2295" style="stop-color:#585A60"/>
		<stop  offset="0.2525" style="stop-color:#5E6167"/>
		<stop  offset="0.4798" style="stop-color:#1F1F21"/>
		<stop  offset="1" style="stop-color:#47494E"/>
	</linearGradient>
	<path class="st68" d="M320.94,545.7l12.99,6.96c4.74,2.28,10.23,2.46,15.11,0.51l9.88-3.96c15.39-6.16,29.88-14.38,43.06-24.43
		l7.95-6.43v11.91c0,1.83-0.83,3.56-2.26,4.7l-1.06,0.84c-18.61,12.27-35.85,22.48-57.61,30.61l0,0
		c-4.88,1.54-10.18,1.02-14.66-1.44l-12.52-7.35L320.94,545.7z"/>
	<g>
		<linearGradient id="SVGID_48_" gradientUnits="userSpaceOnUse" x1="337.9806" y1="544.8661" x2="349.8074" y2="544.8661">
			<stop  offset="0" style="stop-color:#BDBEC0"/>
			<stop  offset="1" style="stop-color:#E6E7E7"/>
		</linearGradient>
		<path class="st69" d="M349.81,542.53l-3.14,6.65c0,0-9.57-5.92-8.62-7.96C339,539.17,349.81,542.53,349.81,542.53z"/>
		
			<linearGradient id="SVGID_49_" gradientUnits="userSpaceOnUse" x1="624.1307" y1="545.7208" x2="629.419" y2="545.7208" gradientTransform="matrix(-1 0 0 1 975.0627 0)">
			<stop  offset="0" style="stop-color:#BDBEC0"/>
			<stop  offset="0.6887" style="stop-color:#E6E5E6"/>
			<stop  offset="1" style="stop-color:#FFFFFF"/>
		</linearGradient>
		<path class="st70" d="M345.64,547.25c0,1.68,1.18,2.35,2.64,1.51s2.64-2.89,2.64-4.56s-1.18-2.35-2.64-1.51
			C346.83,543.53,345.64,545.57,345.64,547.25z"/>
	</g>
	<g>
		<linearGradient id="SVGID_50_" gradientUnits="userSpaceOnUse" x1="333.8918" y1="545.7139" x2="343.2968" y2="545.7139">
			<stop  offset="0" style="stop-color:#BDBEC0"/>
			<stop  offset="1" style="stop-color:#E6E7E7"/>
		</linearGradient>
		<path class="st71" d="M343.3,543.86l-2.5,5.29c0,0-7.61-4.71-6.85-6.33C334.7,541.18,343.3,543.86,343.3,543.86z"/>
		
			<linearGradient id="SVGID_51_" gradientUnits="userSpaceOnUse" x1="630.8716" y1="546.3936" x2="635.077" y2="546.3936" gradientTransform="matrix(-1 0 0 1 975.0627 0)">
			<stop  offset="0" style="stop-color:#BDBEC0"/>
			<stop  offset="0.6887" style="stop-color:#E6E5E6"/>
			<stop  offset="1" style="stop-color:#FFFFFF"/>
		</linearGradient>
		<path class="st72" d="M339.99,547.61c0,1.33,0.94,1.87,2.1,1.2c1.16-0.67,2.1-2.29,2.1-3.63c0-1.33-0.94-1.87-2.1-1.2
			C340.93,544.65,339.99,546.28,339.99,547.61z"/>
	</g>
	<g>
		<linearGradient id="SVGID_52_" gradientUnits="userSpaceOnUse" x1="401.2609" y1="515.4984" x2="406.4941" y2="515.4984">
			<stop  offset="0" style="stop-color:#BDBEC0"/>
			<stop  offset="1" style="stop-color:#E6E7E7"/>
		</linearGradient>
		<path class="st73" d="M406.49,513.41l-2.15,4.54c0,0-3.66-2.78-3.01-4.18C401.99,512.38,406.49,513.41,406.49,513.41z"/>
		
			<linearGradient id="SVGID_53_" gradientUnits="userSpaceOnUse" x1="567.8006" y1="515.5928" x2="571.4122" y2="515.5928" gradientTransform="matrix(-1 0 0 1 975.0627 0)">
			<stop  offset="0" style="stop-color:#BDBEC0"/>
			<stop  offset="0.6887" style="stop-color:#E6E5E6"/>
			<stop  offset="1" style="stop-color:#FFFFFF"/>
		</linearGradient>
		<path class="st74" d="M403.65,516.64c0,1.14,0.81,1.61,1.81,1.03c1-0.58,1.81-1.97,1.81-3.11s-0.81-1.61-1.81-1.03
			C404.46,514.1,403.65,515.49,403.65,516.64z"/>
	</g>
	<g>
		<linearGradient id="SVGID_54_" gradientUnits="userSpaceOnUse" x1="403.5447" y1="511.1886" x2="407.3645" y2="511.1886">
			<stop  offset="0" style="stop-color:#BDBEC0"/>
			<stop  offset="1" style="stop-color:#E6E7E7"/>
		</linearGradient>
		<path class="st75" d="M407.36,509.67l-1.57,3.31c0,0-2.67-2.03-2.2-3.05C404.07,508.91,407.36,509.67,407.36,509.67z"/>
		
			<linearGradient id="SVGID_55_" gradientUnits="userSpaceOnUse" x1="567.1375" y1="511.2576" x2="569.7739" y2="511.2576" gradientTransform="matrix(-1 0 0 1 975.0627 0)">
			<stop  offset="0" style="stop-color:#BDBEC0"/>
			<stop  offset="0.6887" style="stop-color:#E6E5E6"/>
			<stop  offset="1" style="stop-color:#FFFFFF"/>
		</linearGradient>
		<path class="st76" d="M405.29,512.02c0,0.84,0.59,1.17,1.32,0.75c0.73-0.42,1.32-1.44,1.32-2.27c0-0.84-0.59-1.17-1.32-0.75
			C405.88,510.17,405.29,511.18,405.29,512.02z"/>
	</g>
	
		<radialGradient id="SVGID_56_" cx="337.3188" cy="-2815.8726" r="4.0212" gradientTransform="matrix(1 0 0 1.6664 0 5236.8447)" gradientUnits="userSpaceOnUse">
		<stop  offset="0" style="stop-color:#FCEBA7"/>
		<stop  offset="1" style="stop-color:#F8A88D"/>
	</radialGradient>
	<path class="st77" d="M338.78,539.93c-2.14,0-4.26-0.56-6.14-1.71l-0.41,12.01l2.53,1.2c1.64,0.78,3.43,1.14,5.21,1.12
		L338.78,539.93z"/>
	<path class="st53" d="M354.43,536.7l1.28,3.41c1.03,2.74,4.19,3.99,6.81,2.69c4.71-2.33,11.99-6.05,18.08-9.66
		c6.78-4.02,12.35-7.66,15.2-9.56c1.29-0.86,2.09-2.27,2.18-3.82l0.36-6.26c0.07-1.14-1.2-1.88-2.15-1.24
		c-3.97,2.64-12.33,8.11-19.46,12.15c-7.95,4.52-18.11,9.03-21.56,10.53C354.49,535.24,354.17,536.01,354.43,536.7z"/>
	<radialGradient id="SVGID_57_" cx="389.4684" cy="539.4437" r="33.0406" gradientUnits="userSpaceOnUse">
		<stop  offset="0" style="stop-color:#FFFFFF"/>
		<stop  offset="1" style="stop-color:#000000"/>
	</radialGradient>
	<path class="st78" d="M397.08,512.04c0.11,0.21,0.17,0.45,0.16,0.72l-0.36,6.26c-0.09,1.55-0.9,2.96-2.18,3.82
		c-2.84,1.9-8.42,5.54-15.2,9.56c-6.08,3.61-13.36,7.33-18.08,9.66c-1.43,0.71-3.03,0.65-4.35,0.01c1.45,1.28,3.59,1.65,5.45,0.73
		c4.71-2.33,11.99-6.05,18.08-9.66c6.78-4.02,12.35-7.66,15.2-9.56c1.29-0.86,2.09-2.27,2.18-3.82l0.36-6.26
		C398.38,512.7,397.77,512.11,397.08,512.04z"/>
	<linearGradient id="SVGID_58_" gradientUnits="userSpaceOnUse" x1="442.6889" y1="516.3787" x2="325.0879" y2="501.9458">
		<stop  offset="0" style="stop-color:#D2D3D4"/>
		<stop  offset="0.0277" style="stop-color:#C4C5C6"/>
		<stop  offset="0.2326" style="stop-color:#7F7E7E"/>
		<stop  offset="0.4274" style="stop-color:#514F4F"/>
		<stop  offset="0.6068" style="stop-color:#323131"/>
		<stop  offset="0.7676" style="stop-color:#1B1B1B"/>
		<stop  offset="0.9041" style="stop-color:#090909"/>
		<stop  offset="1" style="stop-color:#010101"/>
	</linearGradient>
	<path class="st79" d="M389.9,480.75c0,0,12.09,17.7,11.2,21.53c-0.88,3.83-19.73,15.65-29.75,20.21
		c-10.02,4.57-28.29,12.87-32.56,9.93c-4.27-2.95-7.95-24.3-7.95-24.3s17.42-4.55,34.8-12.5
		C383.03,487.66,389.9,480.75,389.9,480.75z"/>
	<path class="st53" d="M384.74,485.12l-0.11-0.16c-0.48-0.72-1.46-0.76-2.1-0.18c-0.1,0.09-0.2,0.17-0.32,0.25l-7.62,5.11
		c-5.9,3.96-12.27,7.17-18.96,9.56l-8.28,2.97c-0.58,0.21-0.86,0.87-0.6,1.44l0,0c0.54,1.15,1.86,1.69,3.05,1.27l10.62-3.81
		c5.95-2.13,11.61-4.99,16.86-8.51l6.78-4.54C385.18,487.76,385.48,486.24,384.74,485.12z"/>
	<linearGradient id="SVGID_59_" gradientUnits="userSpaceOnUse" x1="211.14" y1="467.2776" x2="220.3465" y2="452.0669">
		<stop  offset="0" style="stop-color:#9B9C9C"/>
		<stop  offset="0.022" style="stop-color:#959595"/>
		<stop  offset="0.2281" style="stop-color:#676766"/>
		<stop  offset="0.424" style="stop-color:#454544"/>
		<stop  offset="0.6045" style="stop-color:#2C2D2C"/>
		<stop  offset="0.7663" style="stop-color:#181919"/>
		<stop  offset="0.9036" style="stop-color:#080908"/>
		<stop  offset="1" style="stop-color:#010101"/>
	</linearGradient>
	<polygon class="st80" points="111.39,394.43 314.28,508.92 320.46,524.32 111.24,406.81 	"/>
	<linearGradient id="SVGID_60_" gradientUnits="userSpaceOnUse" x1="108.961" y1="430.2017" x2="116.3667" y2="430.2017">
		<stop  offset="0.0354" style="stop-color:#654DA0"/>
		<stop  offset="0.3495" style="stop-color:#6F57A4"/>
		<stop  offset="0.9559" style="stop-color:#8A6FB1"/>
		<stop  offset="1" style="stop-color:#8C71B2"/>
	</linearGradient>
	<path class="st81" d="M109.23,419.34l7.14,3.73v18v0c-4.62-2.06-7.54-6.7-7.4-11.75L109.23,419.34z"/>
	<polygon class="st82" points="286.16,524.45 178.65,462.76 179.31,461.62 286.82,523.3 	"/>
	<radialGradient id="SVGID_61_" cx="208.9243" cy="435.0279" r="84.3362" gradientUnits="userSpaceOnUse">
		<stop  offset="0" style="stop-color:#FFFFFF"/>
		<stop  offset="1" style="stop-color:#000000"/>
	</radialGradient>
	<polygon class="st83" points="295.89,453.08 122.62,353.41 121.96,354.56 235.22,419.72 235.22,493.22 236.55,493.22 
		236.55,420.48 275.45,442.85 275.45,516.65 276.78,516.65 276.78,443.62 295.23,454.23 	"/>
	<g>
		<linearGradient id="SVGID_62_" gradientUnits="userSpaceOnUse" x1="284.1207" y1="497.4792" x2="291.1118" y2="497.4792">
			<stop  offset="0" style="stop-color:#9B9C9C"/>
			<stop  offset="0.0464" style="stop-color:#A1A1A1"/>
			<stop  offset="0.3435" style="stop-color:#C5C4C3"/>
			<stop  offset="0.6119" style="stop-color:#E2E0E0"/>
			<stop  offset="0.8398" style="stop-color:#F5F4F4"/>
			<stop  offset="1" style="stop-color:#FFFFFF"/>
		</linearGradient>
		<path class="st84" d="M288.7,499.5c0,2.22-1.56,3.11-3.5,1.99c-1.93-1.11-3.5-3.81-3.5-6.03c0-2.22,1.56-3.11,3.5-1.99
			S288.7,497.28,288.7,499.5z"/>
		<radialGradient id="SVGID_63_" cx="284.459" cy="495.0059" r="6.7809" gradientUnits="userSpaceOnUse">
			<stop  offset="0" style="stop-color:#EEEBF0"/>
			<stop  offset="0.5808" style="stop-color:#D4D2D9"/>
			<stop  offset="0.8925" style="stop-color:#ABABBC"/>
			<stop  offset="1" style="stop-color:#9D9EB3"/>
		</radialGradient>
		<path class="st85" d="M288.65,499.34c0.76,1.54-0.62,1.79-3.1,0.55c-2.47-1.24-5.09-3.5-5.86-5.04c-0.76-1.54,0.62-1.79,3.1-0.55
			S287.89,497.8,288.65,499.34z"/>
	</g>
	<g>
		<linearGradient id="SVGID_64_" gradientUnits="userSpaceOnUse" x1="266.8802" y1="488.1844" x2="273.8714" y2="488.1844">
			<stop  offset="0" style="stop-color:#9B9C9C"/>
			<stop  offset="0.0464" style="stop-color:#A1A1A1"/>
			<stop  offset="0.3435" style="stop-color:#C5C4C3"/>
			<stop  offset="0.6119" style="stop-color:#E2E0E0"/>
			<stop  offset="0.8398" style="stop-color:#F5F4F4"/>
			<stop  offset="1" style="stop-color:#FFFFFF"/>
		</linearGradient>
		<path class="st86" d="M271.46,490.2c0,2.22-1.57,3.11-3.5,1.99s-3.5-3.81-3.5-6.03c0-2.22,1.56-3.11,3.5-1.99
			S271.46,487.99,271.46,490.2z"/>
		<radialGradient id="SVGID_65_" cx="267.2184" cy="485.7112" r="6.7809" gradientUnits="userSpaceOnUse">
			<stop  offset="0" style="stop-color:#EEEBF0"/>
			<stop  offset="0.5808" style="stop-color:#D4D2D9"/>
			<stop  offset="0.8925" style="stop-color:#ABABBC"/>
			<stop  offset="1" style="stop-color:#9D9EB3"/>
		</radialGradient>
		<path class="st87" d="M271.41,490.05c0.76,1.54-0.62,1.79-3.1,0.55c-2.47-1.24-5.09-3.5-5.86-5.04c-0.76-1.54,0.62-1.79,3.1-0.55
			C268.02,486.25,270.65,488.51,271.41,490.05z"/>
	</g>
	<path class="st82" d="M270.07,480.29L270.07,480.29c-0.52,0-1.02-0.13-1.49-0.38l-24.85-13.35c-2.25-1.21-3.66-3.55-3.66-6.11
		v-25.17c0-1.74,1.42-3.16,3.16-3.16c0.55,0,1.1,0.15,1.59,0.43l24.97,14.56c2.12,1.24,3.44,3.54,3.44,5.99v24.02
		c0,0.87-0.34,1.67-0.96,2.27C271.68,479.97,270.88,480.29,270.07,480.29z M243.23,433.45c-0.88,0-1.83,0.7-1.83,1.83v25.17
		c0,2.07,1.13,3.96,2.96,4.94l24.85,13.35c0.7,0.38,1.58,0.24,2.14-0.3c0.36-0.34,0.55-0.81,0.55-1.31v-24.02
		c0-1.99-1.07-3.85-2.78-4.85l-24.97-14.56C243.86,433.53,243.55,433.45,243.23,433.45z"/>
	<radialGradient id="SVGID_66_" cx="256.9467" cy="451.1212" r="26.8702" gradientUnits="userSpaceOnUse">
		<stop  offset="0" style="stop-color:#FFFFFF"/>
		<stop  offset="1" style="stop-color:#000000"/>
	</radialGradient>
	<path class="st88" d="M270.37,481.32L270.37,481.32c-0.52,0-1.02-0.13-1.49-0.38l-24.85-13.35c-2.25-1.21-3.66-3.55-3.66-6.11
		v-25.17c0-1.74,1.42-3.16,3.16-3.16c0.55,0,1.1,0.15,1.59,0.43l24.97,14.56c2.12,1.24,3.44,3.54,3.44,5.99v24.02
		c0,0.87-0.34,1.67-0.96,2.27C271.97,481,271.17,481.32,270.37,481.32z M243.53,434.48c-0.88,0-1.83,0.7-1.83,1.83v25.17
		c0,2.07,1.13,3.96,2.96,4.94l24.85,13.35c0.7,0.38,1.58,0.24,2.14-0.3c0.36-0.34,0.55-0.81,0.55-1.31v-24.02
		c0-1.99-1.07-3.85-2.78-4.85l-24.97-14.56C244.16,434.57,243.85,434.48,243.53,434.48z"/>
	<g>
		<linearGradient id="SVGID_67_" gradientUnits="userSpaceOnUse" x1="113.3019" y1="373.0079" x2="227.1973" y2="437.5437">
			<stop  offset="0" style="stop-color:#25144D"/>
			<stop  offset="1" style="stop-color:#482D84"/>
		</linearGradient>
		<path class="st89" d="M137.5,386.66c0,3.02-0.75,4.91-2.25,5.65c-1.5,0.74-3.67,0.3-6.5-1.34l-4.53-2.62v-18.37l5.03,2.9
			c2.61,1.51,4.64,3.47,6.09,5.89C136.78,381.19,137.5,383.82,137.5,386.66z M133.97,384.73c0-3.94-1.52-6.79-4.55-8.55l-1.81-1.04
			v11.96l1.46,0.84C132.34,389.82,133.97,388.75,133.97,384.73z"/>
		<linearGradient id="SVGID_68_" gradientUnits="userSpaceOnUse" x1="113.2149" y1="373.1612" x2="227.1107" y2="437.6972">
			<stop  offset="0" style="stop-color:#25144D"/>
			<stop  offset="1" style="stop-color:#482D84"/>
		</linearGradient>
		<path class="st90" d="M150.03,403.26l-9.22-5.32v-18.37l9.22,5.32v3.19l-5.82-3.36v4.03l5.42,3.13v3.19l-5.42-3.13v4.74l5.82,3.36
			V403.26z"/>
		<linearGradient id="SVGID_69_" gradientUnits="userSpaceOnUse" x1="113.1553" y1="373.2658" x2="227.0515" y2="437.802">
			<stop  offset="0" style="stop-color:#25144D"/>
			<stop  offset="1" style="stop-color:#482D84"/>
		</linearGradient>
		<path class="st91" d="M153.37,405.18v-18.37l3.39,1.96v15.15l6.49,3.75v3.22L153.37,405.18z"/>
		<linearGradient id="SVGID_70_" gradientUnits="userSpaceOnUse" x1="113.1124" y1="373.3427" x2="227.0072" y2="437.8781">
			<stop  offset="0" style="stop-color:#25144D"/>
			<stop  offset="1" style="stop-color:#482D84"/>
		</linearGradient>
		<path class="st92" d="M166.04,412.5v-18.37l3.39,1.96v18.37L166.04,412.5z"/>
		<linearGradient id="SVGID_71_" gradientUnits="userSpaceOnUse" x1="113.0746" y1="373.4098" x2="226.9693" y2="437.9452">
			<stop  offset="0" style="stop-color:#25144D"/>
			<stop  offset="1" style="stop-color:#482D84"/>
		</linearGradient>
		<path class="st93" d="M182.59,403.69l3.43,1.98l-5.44,15.22l-3.7-2.14l-5.43-21.5l3.43,1.98l3.01,12.67
			c0.17,0.74,0.34,1.59,0.52,2.56c0.18,0.96,0.29,1.62,0.33,1.98c0.08-0.72,0.35-1.91,0.82-3.57L182.59,403.69z"/>
		<linearGradient id="SVGID_72_" gradientUnits="userSpaceOnUse" x1="112.9979" y1="373.5448" x2="226.8927" y2="438.0802">
			<stop  offset="0" style="stop-color:#25144D"/>
			<stop  offset="1" style="stop-color:#482D84"/>
		</linearGradient>
		<path class="st94" d="M197.25,430.52l-9.22-5.32v-18.37l9.22,5.32v3.19l-5.82-3.36v4.03l5.42,3.13v3.19l-5.42-3.13v4.74l5.82,3.36
			V430.52z"/>
		<linearGradient id="SVGID_73_" gradientUnits="userSpaceOnUse" x1="112.9315" y1="373.6611" x2="226.8271" y2="438.197">
			<stop  offset="0" style="stop-color:#25144D"/>
			<stop  offset="1" style="stop-color:#482D84"/>
		</linearGradient>
		<path class="st95" d="M203.98,427.36v7.05l-3.39-1.96v-18.37l4.66,2.69c2.17,1.26,3.78,2.64,4.83,4.15
			c1.04,1.51,1.57,3.19,1.57,5.04c0,1.08-0.26,1.89-0.78,2.43c-0.52,0.54-1.25,0.78-2.2,0.71c2.41,5.52,3.98,9.09,4.71,10.72
			l-3.77-2.17l-3.82-9.25L203.98,427.36z M203.98,424.19l1.09,0.63c1.07,0.62,1.86,0.87,2.38,0.76c0.51-0.12,0.77-0.61,0.77-1.49
			c0-0.87-0.26-1.64-0.78-2.31c-0.52-0.67-1.33-1.32-2.42-1.95l-1.03-0.59V424.19z"/>
		<linearGradient id="SVGID_74_" gradientUnits="userSpaceOnUse" x1="112.8826" y1="373.7485" x2="226.7775" y2="438.284">
			<stop  offset="0" style="stop-color:#25144D"/>
			<stop  offset="1" style="stop-color:#482D84"/>
		</linearGradient>
		<path class="st96" d="M220.37,433.06l3.34-5.63l3.66,2.11l-5.31,8.15v7.15l-3.37-1.95v-7.02l-5.31-14.41l3.68,2.12L220.37,433.06z
			"/>
	</g>
	<g>
		<linearGradient id="SVGID_75_" gradientUnits="userSpaceOnUse" x1="106.4114" y1="385.1694" x2="220.3056" y2="449.7045">
			<stop  offset="0" style="stop-color:#25144D"/>
			<stop  offset="1" style="stop-color:#482D84"/>
		</linearGradient>
		<polygon class="st97" points="123.9,393.22 123.9,396.76 130.6,400.73 130.6,397.12 		"/>
		<linearGradient id="SVGID_76_" gradientUnits="userSpaceOnUse" x1="106.4168" y1="385.1599" x2="220.3114" y2="449.6951">
			<stop  offset="0" style="stop-color:#25144D"/>
			<stop  offset="1" style="stop-color:#482D84"/>
		</linearGradient>
		<polygon class="st98" points="134.16,399.02 134.16,402.56 140.87,406.54 140.87,402.93 		"/>
		<linearGradient id="SVGID_77_" gradientUnits="userSpaceOnUse" x1="106.4222" y1="385.1502" x2="220.3171" y2="449.6857">
			<stop  offset="0" style="stop-color:#25144D"/>
			<stop  offset="1" style="stop-color:#482D84"/>
		</linearGradient>
		<polygon class="st99" points="144.43,404.83 144.43,408.36 151.13,412.34 151.13,408.73 		"/>
		<linearGradient id="SVGID_78_" gradientUnits="userSpaceOnUse" x1="106.4275" y1="385.1406" x2="220.3228" y2="449.6763">
			<stop  offset="0" style="stop-color:#25144D"/>
			<stop  offset="1" style="stop-color:#482D84"/>
		</linearGradient>
		<polygon class="st100" points="154.69,410.63 154.69,414.17 161.4,418.15 161.4,414.54 		"/>
		<linearGradient id="SVGID_79_" gradientUnits="userSpaceOnUse" x1="106.4328" y1="385.1309" x2="220.3284" y2="449.6668">
			<stop  offset="0" style="stop-color:#25144D"/>
			<stop  offset="1" style="stop-color:#482D84"/>
		</linearGradient>
		<polygon class="st101" points="164.96,416.43 164.96,419.97 171.66,423.95 171.66,420.34 		"/>
		<linearGradient id="SVGID_80_" gradientUnits="userSpaceOnUse" x1="106.438" y1="385.1212" x2="220.3339" y2="449.6573">
			<stop  offset="0" style="stop-color:#25144D"/>
			<stop  offset="1" style="stop-color:#482D84"/>
		</linearGradient>
		<polygon class="st102" points="175.22,422.24 175.22,425.77 181.93,429.75 181.93,426.14 		"/>
		<linearGradient id="SVGID_81_" gradientUnits="userSpaceOnUse" x1="106.4431" y1="385.1115" x2="220.3394" y2="449.6477">
			<stop  offset="0" style="stop-color:#25144D"/>
			<stop  offset="1" style="stop-color:#482D84"/>
		</linearGradient>
		<polygon class="st103" points="185.49,428.04 185.49,431.58 192.19,435.56 192.19,431.95 		"/>
		<linearGradient id="SVGID_82_" gradientUnits="userSpaceOnUse" x1="106.4482" y1="385.1017" x2="220.3448" y2="449.6382">
			<stop  offset="0" style="stop-color:#25144D"/>
			<stop  offset="1" style="stop-color:#482D84"/>
		</linearGradient>
		<polygon class="st104" points="195.75,433.85 195.75,437.38 202.46,441.36 202.46,437.75 		"/>
		<linearGradient id="SVGID_83_" gradientUnits="userSpaceOnUse" x1="106.4532" y1="385.0919" x2="220.3502" y2="449.6285">
			<stop  offset="0" style="stop-color:#25144D"/>
			<stop  offset="1" style="stop-color:#482D84"/>
		</linearGradient>
		<polygon class="st105" points="206.02,439.65 206.02,443.19 212.72,447.16 212.72,443.55 		"/>
		<linearGradient id="SVGID_84_" gradientUnits="userSpaceOnUse" x1="106.4582" y1="385.082" x2="220.3555" y2="449.6189">
			<stop  offset="0" style="stop-color:#25144D"/>
			<stop  offset="1" style="stop-color:#482D84"/>
		</linearGradient>
		<polygon class="st106" points="216.28,445.45 216.28,448.99 222.99,452.97 222.99,449.36 		"/>
	</g>
</g>
<g>
	<polygon class="st38" points="25.68,492.04 83.72,524.99 156.19,484.51 102.86,452.51 	"/>
	<g>
		
			<linearGradient id="SVGID_85_" gradientUnits="userSpaceOnUse" x1="6963.4463" y1="479.2525" x2="7095.5103" y2="449.648" gradientTransform="matrix(-1 0 0 1 7113.3809 0)">
			<stop  offset="0.0354" style="stop-color:#F8A88D"/>
			<stop  offset="0.2501" style="stop-color:#F9B391"/>
			<stop  offset="0.6639" style="stop-color:#FBD09D"/>
			<stop  offset="1" style="stop-color:#FCEBA7"/>
		</linearGradient>
		<polygon class="st107" points="100.86,457.8 100.86,489.99 69.81,472 69.81,439.56 		"/>
		
			<linearGradient id="SVGID_86_" gradientUnits="userSpaceOnUse" x1="6988.9316" y1="467.9142" x2="7048.8296" y2="449.9788" gradientTransform="matrix(-1 0 0 1 7113.3809 0)">
			<stop  offset="0.0354" style="stop-color:#F8A88D"/>
			<stop  offset="0.2501" style="stop-color:#F9B391"/>
			<stop  offset="0.6639" style="stop-color:#FBD09D"/>
			<stop  offset="1" style="stop-color:#FCEBA7"/>
		</linearGradient>
		<polygon class="st108" points="100.82,457.8 100.82,489.99 130.29,472.96 130.29,440.52 		"/>
		
			<linearGradient id="SVGID_87_" gradientUnits="userSpaceOnUse" x1="7045.6929" y1="378.3562" x2="7010.8491" y2="444.7611" gradientTransform="matrix(-1 0 0 1 7113.3809 0)">
			<stop  offset="0.0354" style="stop-color:#F8A88D"/>
			<stop  offset="0.2501" style="stop-color:#F9B391"/>
			<stop  offset="0.6639" style="stop-color:#FBD09D"/>
			<stop  offset="1" style="stop-color:#FCEBA7"/>
		</linearGradient>
		<polygon class="st109" points="130.29,440.52 100.82,457.8 69.81,439.56 99.35,422.36 		"/>
		
			<linearGradient id="SVGID_88_" gradientUnits="userSpaceOnUse" x1="7027.7432" y1="452.8163" x2="7046.897" y2="447.0811" gradientTransform="matrix(-1 0 0 1 7113.3809 0)">
			<stop  offset="0.0354" style="stop-color:#C97052"/>
			<stop  offset="0.2715" style="stop-color:#D17A5C"/>
			<stop  offset="0.7269" style="stop-color:#E59579"/>
			<stop  offset="1" style="stop-color:#F7AA90"/>
		</linearGradient>
		<polygon class="st110" points="87.69,450.2 87.69,458.83 80.68,454.82 80.68,445.93 		"/>
		
			<linearGradient id="SVGID_89_" gradientUnits="userSpaceOnUse" x1="7023.063" y1="423.0693" x2="7013.8052" y2="440.7133" gradientTransform="matrix(-1 0 0 1 7113.3809 0)">
			<stop  offset="0.0354" style="stop-color:#C97052"/>
			<stop  offset="0.2715" style="stop-color:#D17A5C"/>
			<stop  offset="0.7269" style="stop-color:#E59579"/>
			<stop  offset="1" style="stop-color:#F7AA90"/>
		</linearGradient>
		<polygon class="st111" points="117.12,432.91 87.65,450.2 80.68,445.93 110.21,428.74 		"/>
		<g>
			
				<linearGradient id="SVGID_90_" gradientUnits="userSpaceOnUse" x1="7463.7197" y1="2244.1663" x2="7475.8105" y2="2250.6848" gradientTransform="matrix(-0.866 -0.5 0 1.1547 6559.0972 1617.8719)">
				<stop  offset="0.0354" style="stop-color:#C97052"/>
				<stop  offset="0.2715" style="stop-color:#D17A5C"/>
				<stop  offset="0.7269" style="stop-color:#E59579"/>
				<stop  offset="1" style="stop-color:#F7AA90"/>
			</linearGradient>
			<polygon class="st112" points="94.96,469.48 97.42,477.1 95.82,476.18 95.82,485.26 94.09,484.26 94.09,475.18 92.5,474.26 			
				"/>
			
				<linearGradient id="SVGID_91_" gradientUnits="userSpaceOnUse" x1="7470.623" y1="2244.1665" x2="7482.7139" y2="2250.6851" gradientTransform="matrix(-0.866 -0.5 0 1.1547 6559.0972 1617.8719)">
				<stop  offset="0.0354" style="stop-color:#C97052"/>
				<stop  offset="0.2715" style="stop-color:#D17A5C"/>
				<stop  offset="0.7269" style="stop-color:#E59579"/>
				<stop  offset="1" style="stop-color:#F7AA90"/>
			</linearGradient>
			<polygon class="st113" points="86.52,470.8 88.98,466.03 91.44,473.65 89.84,472.72 89.84,481.81 88.11,480.81 88.11,471.73 			
				"/>
		</g>
	</g>
	<g>
		
			<linearGradient id="SVGID_92_" gradientUnits="userSpaceOnUse" x1="7013.8931" y1="496.8458" x2="7130.2134" y2="470.7706" gradientTransform="matrix(-1 0 0 1 7113.3809 0)">
			<stop  offset="0.0354" style="stop-color:#F8A88D"/>
			<stop  offset="0.2501" style="stop-color:#F9B391"/>
			<stop  offset="0.6639" style="stop-color:#FBD09D"/>
			<stop  offset="1" style="stop-color:#FCEBA7"/>
		</linearGradient>
		<polygon class="st114" points="56.26,477.95 56.26,506.3 28.92,490.46 28.92,461.88 		"/>
		
			<linearGradient id="SVGID_93_" gradientUnits="userSpaceOnUse" x1="7036.3403" y1="486.8591" x2="7089.0972" y2="471.062" gradientTransform="matrix(-1 0 0 1 7113.3809 0)">
			<stop  offset="0.0354" style="stop-color:#F8A88D"/>
			<stop  offset="0.2501" style="stop-color:#F9B391"/>
			<stop  offset="0.6639" style="stop-color:#FBD09D"/>
			<stop  offset="1" style="stop-color:#FCEBA7"/>
		</linearGradient>
		<polygon class="st115" points="56.23,477.95 56.23,506.3 82.19,491.3 82.19,462.73 		"/>
		
			<linearGradient id="SVGID_94_" gradientUnits="userSpaceOnUse" x1="7086.335" y1="407.9778" x2="7055.645" y2="466.4662" gradientTransform="matrix(-1 0 0 1 7113.3809 0)">
			<stop  offset="0.0354" style="stop-color:#F8A88D"/>
			<stop  offset="0.2501" style="stop-color:#F9B391"/>
			<stop  offset="0.6639" style="stop-color:#FBD09D"/>
			<stop  offset="1" style="stop-color:#FCEBA7"/>
		</linearGradient>
		<polygon class="st116" points="82.19,462.73 56.23,477.95 28.92,461.88 54.93,446.74 		"/>
		
			<linearGradient id="SVGID_95_" gradientUnits="userSpaceOnUse" x1="7070.5249" y1="473.561" x2="7087.395" y2="468.5095" gradientTransform="matrix(-1 0 0 1 7113.3809 0)">
			<stop  offset="0.0354" style="stop-color:#C97052"/>
			<stop  offset="0.2715" style="stop-color:#D17A5C"/>
			<stop  offset="0.7269" style="stop-color:#E59579"/>
			<stop  offset="1" style="stop-color:#F7AA90"/>
		</linearGradient>
		<polygon class="st117" points="44.66,471.25 44.66,478.86 38.49,475.33 38.49,467.5 		"/>
		
			<linearGradient id="SVGID_96_" gradientUnits="userSpaceOnUse" x1="7066.4023" y1="447.3605" x2="7058.2485" y2="462.9008" gradientTransform="matrix(-1 0 0 1 7113.3809 0)">
			<stop  offset="0.0354" style="stop-color:#C97052"/>
			<stop  offset="0.2715" style="stop-color:#D17A5C"/>
			<stop  offset="0.7269" style="stop-color:#E59579"/>
			<stop  offset="1" style="stop-color:#F7AA90"/>
		</linearGradient>
		<polygon class="st118" points="70.59,456.03 44.63,471.25 38.49,467.5 64.5,452.35 		"/>
		<g>
			
				<linearGradient id="SVGID_97_" gradientUnits="userSpaceOnUse" x1="7514.4814" y1="2281.5793" x2="7525.1304" y2="2287.3206" gradientTransform="matrix(-0.866 -0.5 0 1.1547 6559.0972 1617.8719)">
				<stop  offset="0.0354" style="stop-color:#C97052"/>
				<stop  offset="0.2715" style="stop-color:#D17A5C"/>
				<stop  offset="0.7269" style="stop-color:#E59579"/>
				<stop  offset="1" style="stop-color:#F7AA90"/>
			</linearGradient>
			<polygon class="st119" points="51.06,488.24 53.23,494.95 51.83,494.14 51.83,502.13 50.3,501.26 50.3,493.26 48.9,492.45 			"/>
			
				<linearGradient id="SVGID_98_" gradientUnits="userSpaceOnUse" x1="7520.5615" y1="2281.5793" x2="7531.2109" y2="2287.3208" gradientTransform="matrix(-0.866 -0.5 0 1.1547 6559.0972 1617.8719)">
				<stop  offset="0.0354" style="stop-color:#C97052"/>
				<stop  offset="0.2715" style="stop-color:#D17A5C"/>
				<stop  offset="0.7269" style="stop-color:#E59579"/>
				<stop  offset="1" style="stop-color:#F7AA90"/>
			</linearGradient>
			<polygon class="st120" points="43.63,489.41 45.8,485.2 47.97,491.91 46.56,491.1 46.56,499.09 45.04,498.22 45.04,490.22 			"/>
		</g>
	</g>
	<g>
		<linearGradient id="SVGID_99_" gradientUnits="userSpaceOnUse" x1="98.3675" y1="496.2896" x2="169.9506" y2="474.8551">
			<stop  offset="0.0354" style="stop-color:#F8A88D"/>
			<stop  offset="0.2501" style="stop-color:#F9B391"/>
			<stop  offset="0.6639" style="stop-color:#FBD09D"/>
			<stop  offset="1" style="stop-color:#FCEBA7"/>
		</linearGradient>
		<polygon class="st121" points="90.14,488.52 90.14,516.87 117.48,501.03 117.48,472.45 		"/>
		<linearGradient id="SVGID_100_" gradientUnits="userSpaceOnUse" x1="33.007" y1="504.9876" x2="123.2842" y2="484.7503">
			<stop  offset="0.0354" style="stop-color:#F8A88D"/>
			<stop  offset="0.2501" style="stop-color:#F9B391"/>
			<stop  offset="0.6639" style="stop-color:#FBD09D"/>
			<stop  offset="1" style="stop-color:#FCEBA7"/>
		</linearGradient>
		<polygon class="st122" points="90.17,488.52 90.17,516.87 64.21,501.87 64.21,473.3 		"/>
		<linearGradient id="SVGID_101_" gradientUnits="userSpaceOnUse" x1="119.3524" y1="418.5469" x2="88.6625" y2="477.0354">
			<stop  offset="0.0354" style="stop-color:#F8A88D"/>
			<stop  offset="0.2501" style="stop-color:#F9B391"/>
			<stop  offset="0.6639" style="stop-color:#FBD09D"/>
			<stop  offset="1" style="stop-color:#FCEBA7"/>
		</linearGradient>
		<polygon class="st123" points="64.21,473.3 90.17,488.52 117.48,472.45 91.47,457.31 		"/>
		<linearGradient id="SVGID_102_" gradientUnits="userSpaceOnUse" x1="103.5424" y1="484.1304" x2="120.4129" y2="479.0788">
			<stop  offset="0.0354" style="stop-color:#C97052"/>
			<stop  offset="0.2715" style="stop-color:#D17A5C"/>
			<stop  offset="0.7269" style="stop-color:#E59579"/>
			<stop  offset="1" style="stop-color:#F7AA90"/>
		</linearGradient>
		<polygon class="st124" points="101.74,481.82 101.74,489.43 107.91,485.9 107.91,478.07 		"/>
		<linearGradient id="SVGID_103_" gradientUnits="userSpaceOnUse" x1="99.4202" y1="457.9295" x2="91.2658" y2="473.4702">
			<stop  offset="0.0354" style="stop-color:#C97052"/>
			<stop  offset="0.2715" style="stop-color:#D17A5C"/>
			<stop  offset="0.7269" style="stop-color:#E59579"/>
			<stop  offset="1" style="stop-color:#F7AA90"/>
		</linearGradient>
		<polygon class="st125" points="75.81,466.6 101.77,481.82 107.91,478.07 81.9,462.92 		"/>
		<g>
			
				<linearGradient id="SVGID_104_" gradientUnits="userSpaceOnUse" x1="-530.5334" y1="-1192.8625" x2="-519.8838" y2="-1187.1211" gradientTransform="matrix(0.866 -0.5 0 1.1547 554.2837 1617.8719)">
				<stop  offset="0.0354" style="stop-color:#C97052"/>
				<stop  offset="0.2715" style="stop-color:#D17A5C"/>
				<stop  offset="0.7269" style="stop-color:#E59579"/>
				<stop  offset="1" style="stop-color:#F7AA90"/>
			</linearGradient>
			<polygon class="st126" points="95.33,498.81 93.17,505.52 94.57,504.71 94.57,512.7 96.09,511.82 96.09,503.83 97.5,503.01 			
				"/>
			
				<linearGradient id="SVGID_105_" gradientUnits="userSpaceOnUse" x1="-524.4529" y1="-1192.8624" x2="-513.8035" y2="-1187.121" gradientTransform="matrix(0.866 -0.5 0 1.1547 554.2837 1617.8719)">
				<stop  offset="0.0354" style="stop-color:#C97052"/>
				<stop  offset="0.2715" style="stop-color:#D17A5C"/>
				<stop  offset="0.7269" style="stop-color:#E59579"/>
				<stop  offset="1" style="stop-color:#F7AA90"/>
			</linearGradient>
			<polygon class="st127" points="102.77,499.97 100.6,495.77 98.43,502.48 99.84,501.67 99.84,509.66 101.36,508.78 101.36,500.79 
							"/>
		</g>
	</g>
	<g>
		<linearGradient id="SVGID_106_" gradientUnits="userSpaceOnUse" x1="84.1884" y1="457.0306" x2="144.5724" y2="438.9496">
			<stop  offset="0.0354" style="stop-color:#F8A88D"/>
			<stop  offset="0.2501" style="stop-color:#F9B391"/>
			<stop  offset="0.6639" style="stop-color:#FBD09D"/>
			<stop  offset="1" style="stop-color:#FCEBA7"/>
		</linearGradient>
		<polygon class="st128" points="77.24,450.48 77.24,474.39 100.31,461.03 100.31,436.92 		"/>
		<linearGradient id="SVGID_107_" gradientUnits="userSpaceOnUse" x1="29.0532" y1="464.3679" x2="105.2071" y2="447.2966">
			<stop  offset="0.0354" style="stop-color:#F8A88D"/>
			<stop  offset="0.2501" style="stop-color:#F9B391"/>
			<stop  offset="0.6639" style="stop-color:#FBD09D"/>
			<stop  offset="1" style="stop-color:#FCEBA7"/>
		</linearGradient>
		<polygon class="st129" points="77.27,450.48 77.27,474.39 55.38,461.74 55.38,437.64 		"/>
		<linearGradient id="SVGID_108_" gradientUnits="userSpaceOnUse" x1="101.8903" y1="391.4504" x2="76.0018" y2="440.7887">
			<stop  offset="0.0354" style="stop-color:#F8A88D"/>
			<stop  offset="0.2501" style="stop-color:#F9B391"/>
			<stop  offset="0.6639" style="stop-color:#FBD09D"/>
			<stop  offset="1" style="stop-color:#FCEBA7"/>
		</linearGradient>
		<polygon class="st130" points="55.38,437.64 77.27,450.48 100.31,436.92 78.37,424.15 		"/>
		<linearGradient id="SVGID_109_" gradientUnits="userSpaceOnUse" x1="88.5538" y1="446.7737" x2="102.785" y2="442.5124">
			<stop  offset="0.0354" style="stop-color:#C97052"/>
			<stop  offset="0.2715" style="stop-color:#D17A5C"/>
			<stop  offset="0.7269" style="stop-color:#E59579"/>
			<stop  offset="1" style="stop-color:#F7AA90"/>
		</linearGradient>
		<polygon class="st131" points="87.03,444.83 87.03,451.24 92.24,448.26 92.24,441.66 		"/>
		<linearGradient id="SVGID_110_" gradientUnits="userSpaceOnUse" x1="85.0764" y1="424.672" x2="78.1977" y2="437.7812">
			<stop  offset="0.0354" style="stop-color:#C97052"/>
			<stop  offset="0.2715" style="stop-color:#D17A5C"/>
			<stop  offset="0.7269" style="stop-color:#E59579"/>
			<stop  offset="1" style="stop-color:#F7AA90"/>
		</linearGradient>
		<polygon class="st132" points="65.16,431.99 87.06,444.83 92.24,441.66 70.3,428.88 		"/>
		<g>
			
				<linearGradient id="SVGID_111_" gradientUnits="userSpaceOnUse" x1="-546.2695" y1="-1234.9562" x2="-537.2861" y2="-1230.1129" gradientTransform="matrix(0.866 -0.5 0 1.1547 554.2837 1617.8719)">
				<stop  offset="0.0354" style="stop-color:#C97052"/>
				<stop  offset="0.2715" style="stop-color:#D17A5C"/>
				<stop  offset="0.7269" style="stop-color:#E59579"/>
				<stop  offset="1" style="stop-color:#F7AA90"/>
			</linearGradient>
			<polygon class="st133" points="81.63,459.15 79.8,464.81 80.99,464.13 80.99,470.88 82.27,470.14 82.27,463.39 83.46,462.7 			
				"/>
			
				<linearGradient id="SVGID_112_" gradientUnits="userSpaceOnUse" x1="-541.1403" y1="-1234.9561" x2="-532.1569" y2="-1230.1128" gradientTransform="matrix(0.866 -0.5 0 1.1547 554.2837 1617.8719)">
				<stop  offset="0.0354" style="stop-color:#C97052"/>
				<stop  offset="0.2715" style="stop-color:#D17A5C"/>
				<stop  offset="0.7269" style="stop-color:#E59579"/>
				<stop  offset="1" style="stop-color:#F7AA90"/>
			</linearGradient>
			<polygon class="st134" points="87.9,460.14 86.07,456.59 84.24,462.25 85.43,461.57 85.43,468.31 86.71,467.57 86.71,460.82 			
				"/>
		</g>
	</g>
</g>
<g>
	<linearGradient id="SVGID_113_" gradientUnits="userSpaceOnUse" x1="174.2657" y1="541.4426" x2="126.2309" y2="541.4426">
		<stop  offset="0.0354" style="stop-color:#943895"/>
		<stop  offset="0.1267" style="stop-color:#973A96"/>
		<stop  offset="0.2139" style="stop-color:#9E4098"/>
		<stop  offset="0.2994" style="stop-color:#AB499B"/>
		<stop  offset="0.3838" style="stop-color:#BF56A0"/>
		<stop  offset="0.4667" style="stop-color:#D969A8"/>
		<stop  offset="0.4848" style="stop-color:#E06EAA"/>
		<stop  offset="0.618" style="stop-color:#D060A4"/>
		<stop  offset="0.7497" style="stop-color:#C658A1"/>
		<stop  offset="0.8737" style="stop-color:#C355A0"/>
	</linearGradient>
	<path class="st135" d="M173.99,534.51v-0.64h-47.11v1.16h0.01c-0.29,2.13,0.84,4.2,3.45,5.71l10.82,6.24
		c5.18,2.99,14.22,2.61,20.2-0.84l7.73-4.46C172.62,539.64,174.3,536.97,173.99,534.51z"/>
	<linearGradient id="SVGID_114_" gradientUnits="userSpaceOnUse" x1="178.2175" y1="480.5702" x2="146.4914" y2="541.0334">
		<stop  offset="0.0354" style="stop-color:#943895"/>
		<stop  offset="0.2294" style="stop-color:#9E4098"/>
		<stop  offset="0.6053" style="stop-color:#BB539F"/>
		<stop  offset="1" style="stop-color:#E06EAA"/>
	</linearGradient>
	<path class="st136" d="M141.15,545.13l-10.82-6.24c-5.18-2.99-4.53-8.21,1.45-11.66l7.73-4.46c5.98-3.45,15.02-3.83,20.2-0.84
		l10.82,6.24c5.18,2.99,4.53,8.21-1.45,11.66l-7.73,4.46C155.37,547.75,146.32,548.12,141.15,545.13z"/>
	<radialGradient id="SVGID_115_" cx="148.0008" cy="540.4604" r="13.5094" gradientUnits="userSpaceOnUse">
		<stop  offset="0" style="stop-color:#FFFFFF"/>
		<stop  offset="1" style="stop-color:#000000"/>
	</radialGradient>
	<path class="st137" d="M169.08,539.38l-7.73,4.46c-5.98,3.45-15.02,3.83-20.2,0.84l-10.82-6.24c-2.19-1.27-3.33-2.93-3.47-4.69
		c-0.15,2.02,0.98,3.97,3.47,5.41l10.82,6.24c5.18,2.99,14.22,2.61,20.2-0.84l7.73-4.46c3.45-1.99,5.11-4.57,4.92-6.97
		C173.84,535.31,172.19,537.58,169.08,539.38z"/>
	<linearGradient id="SVGID_116_" gradientUnits="userSpaceOnUse" x1="174.2656" y1="544.1641" x2="126.2309" y2="544.1641">
		<stop  offset="0.0354" style="stop-color:#943895"/>
		<stop  offset="0.1267" style="stop-color:#973A96"/>
		<stop  offset="0.2139" style="stop-color:#9E4098"/>
		<stop  offset="0.2994" style="stop-color:#AB499B"/>
		<stop  offset="0.3838" style="stop-color:#BF56A0"/>
		<stop  offset="0.4667" style="stop-color:#D969A8"/>
		<stop  offset="0.4848" style="stop-color:#E06EAA"/>
		<stop  offset="0.618" style="stop-color:#D060A4"/>
		<stop  offset="0.7497" style="stop-color:#C658A1"/>
		<stop  offset="0.8737" style="stop-color:#C355A0"/>
	</linearGradient>
	<path class="st138" d="M173.99,537.23v-0.64h-0.01c-0.28,2.1-1.93,4.24-4.9,5.96l-7.73,4.46c-5.98,3.45-15.02,3.83-20.2,0.84
		l-10.82-6.24c-2.16-1.25-3.29-2.89-3.46-4.62v0.77h0.01c-0.29,2.13,0.84,4.2,3.45,5.71l10.82,6.24c5.18,2.99,14.22,2.61,20.2-0.84
		l7.73-4.46C172.62,542.36,174.3,539.69,173.99,537.23z"/>
	<g>
		<linearGradient id="SVGID_117_" gradientUnits="userSpaceOnUse" x1="139.4396" y1="516.5701" x2="164.0724" y2="521.761">
			<stop  offset="0.0101" style="stop-color:#C1A2CC"/>
			<stop  offset="0.0477" style="stop-color:#C7AAD1"/>
			<stop  offset="0.1119" style="stop-color:#D5C2DF"/>
			<stop  offset="0.1945" style="stop-color:#F1EBF5"/>
			<stop  offset="0.2222" style="stop-color:#FFFFFF"/>
			<stop  offset="0.2547" style="stop-color:#F6F2F8"/>
			<stop  offset="0.309" style="stop-color:#E5D9EB"/>
			<stop  offset="0.3586" style="stop-color:#D4BEDD"/>
			<stop  offset="0.4117" style="stop-color:#C1A9D1"/>
			<stop  offset="0.4856" style="stop-color:#AD93C6"/>
			<stop  offset="0.5541" style="stop-color:#A188BF"/>
			<stop  offset="0.6111" style="stop-color:#9D84BD"/>
			<stop  offset="0.7301" style="stop-color:#A68BC0"/>
			<stop  offset="0.9379" style="stop-color:#BE9FCB"/>
			<stop  offset="1" style="stop-color:#C6A6CF"/>
		</linearGradient>
		<path class="st139" d="M155.16,497.77h-9.25l-10.06,34.04h0.01c0,0.04-0.01,0.08-0.01,0.12c0,4.72,6.57,8.55,14.68,8.55
			c8.11,0,14.68-3.83,14.68-8.55c0-0.04,0-0.08-0.01-0.12h0.01L155.16,497.77z"/>
		<linearGradient id="SVGID_118_" gradientUnits="userSpaceOnUse" x1="139.9943" y1="492.5141" x2="153.8508" y2="499.4423">
			<stop  offset="0.0354" style="stop-color:#943895"/>
			<stop  offset="0.2294" style="stop-color:#9E4098"/>
			<stop  offset="0.6053" style="stop-color:#BB539F"/>
			<stop  offset="1" style="stop-color:#E06EAA"/>
		</linearGradient>
		<path class="st140" d="M155.16,497.79c0,1.49-2.07,2.69-4.63,2.69c-2.55,0-4.63-1.21-4.63-2.69c0-1.49,2.07-2.69,4.63-2.69
			C153.09,495.09,155.16,496.3,155.16,497.79z"/>
		<g>
			<linearGradient id="SVGID_119_" gradientUnits="userSpaceOnUse" x1="137.1982" y1="528.9003" x2="161.4474" y2="533.9985">
				<stop  offset="0" style="stop-color:#B83293"/>
				<stop  offset="0.0492" style="stop-color:#BA3B95"/>
				<stop  offset="0.0909" style="stop-color:#BC4599"/>
				<stop  offset="0.2071" style="stop-color:#E06EAA"/>
				<stop  offset="0.3048" style="stop-color:#CD559F"/>
				<stop  offset="0.4091" style="stop-color:#B83293"/>
				<stop  offset="0.5404" style="stop-color:#9C3995"/>
				<stop  offset="0.6953" style="stop-color:#9F3895"/>
				<stop  offset="0.8299" style="stop-color:#A63794"/>
				<stop  offset="0.9566" style="stop-color:#B23493"/>
				<stop  offset="1" style="stop-color:#B83293"/>
			</linearGradient>
			<path class="st141" d="M165.22,531.81l-2-6.76c0,0.08,0.01,0.16,0.01,0.24c0,4.08-5.68,7.39-12.7,7.39s-12.7-3.31-12.7-7.39
				c0-0.08,0.01-0.16,0.01-0.24l-2,6.76h0.01c0,0.04-0.01,0.08-0.01,0.12c0,4.72,6.57,8.55,14.68,8.55c8.11,0,14.68-3.83,14.68-8.55
				C165.22,531.89,165.22,531.85,165.22,531.81L165.22,531.81z"/>
			<linearGradient id="SVGID_120_" gradientUnits="userSpaceOnUse" x1="140.0971" y1="515.1117" x2="164.3463" y2="520.2099">
				<stop  offset="0" style="stop-color:#B83293"/>
				<stop  offset="0.0492" style="stop-color:#BA3B95"/>
				<stop  offset="0.0909" style="stop-color:#BC4599"/>
				<stop  offset="0.2071" style="stop-color:#E06EAA"/>
				<stop  offset="0.3048" style="stop-color:#CD559F"/>
				<stop  offset="0.4091" style="stop-color:#B83293"/>
				<stop  offset="0.5404" style="stop-color:#9C3995"/>
				<stop  offset="0.6953" style="stop-color:#9F3895"/>
				<stop  offset="0.8299" style="stop-color:#A63794"/>
				<stop  offset="0.9566" style="stop-color:#B23493"/>
				<stop  offset="1" style="stop-color:#B83293"/>
			</linearGradient>
			<path class="st142" d="M159.19,511.4c0,0.05,0.01,0.09,0.01,0.14c0,2.79-3.88,5.04-8.66,5.04c-4.78,0-8.66-2.26-8.66-5.04
				c0-0.05,0.01-0.11,0.01-0.16l-2.04,6.89c0,0.06,0,0.11,0,0.14c0,3.43,4.78,6.22,10.68,6.22s10.68-2.78,10.68-6.22
				c0-0.03,0.01-0.08,0.01-0.12L159.19,511.4z"/>
			<linearGradient id="SVGID_121_" gradientUnits="userSpaceOnUse" x1="143.0207" y1="501.2058" x2="167.27" y2="506.3041">
				<stop  offset="0" style="stop-color:#B83293"/>
				<stop  offset="0.0492" style="stop-color:#BA3B95"/>
				<stop  offset="0.0909" style="stop-color:#BC4599"/>
				<stop  offset="0.2071" style="stop-color:#E06EAA"/>
				<stop  offset="0.3048" style="stop-color:#CD559F"/>
				<stop  offset="0.4091" style="stop-color:#B83293"/>
				<stop  offset="0.5404" style="stop-color:#9C3995"/>
				<stop  offset="0.6953" style="stop-color:#9F3895"/>
				<stop  offset="0.8299" style="stop-color:#A63794"/>
				<stop  offset="0.9566" style="stop-color:#B23493"/>
				<stop  offset="1" style="stop-color:#B83293"/>
			</linearGradient>
			<path class="st143" d="M155.16,497.77L155.16,497.77c0,0.01,0,0.01,0,0.02c0,1.49-2.07,2.69-4.63,2.69
				c-2.55,0-4.63-1.21-4.63-2.69c0-0.01,0-0.01,0-0.02h0l-2.02,6.83c0,0.03,0,0.06,0,0.07c0,2.14,2.97,3.87,6.64,3.87
				s6.64-1.73,6.64-3.87c0-0.01,0-0.03,0-0.06L155.16,497.77z"/>
		</g>
		<linearGradient id="SVGID_122_" gradientUnits="userSpaceOnUse" x1="154.2435" y1="497.6339" x2="145.8288" y2="497.6339">
			<stop  offset="0.0354" style="stop-color:#943895"/>
			<stop  offset="0.1552" style="stop-color:#9E4098"/>
			<stop  offset="0.3875" style="stop-color:#BB539F"/>
			<stop  offset="0.6313" style="stop-color:#E06EAA"/>
			<stop  offset="0.8737" style="stop-color:#C355A0"/>
		</linearGradient>
		<ellipse class="st144" cx="150.54" cy="497.63" rx="3.8" ry="1.94"/>
		<linearGradient id="SVGID_123_" gradientUnits="userSpaceOnUse" x1="150.539" y1="496.1306" x2="150.539" y2="510.5097">
			<stop  offset="0" style="stop-color:#FFFFFF"/>
			<stop  offset="1" style="stop-color:#000000"/>
		</linearGradient>
		<ellipse class="st145" cx="150.54" cy="497.63" rx="3.8" ry="1.94"/>
		
			<radialGradient id="SVGID_124_" cx="-3358.7847" cy="24.9814" r="13.8115" gradientTransform="matrix(0.3234 -0.0623 0.1892 0.9819 1238.4486 284.0352)" gradientUnits="userSpaceOnUse">
			<stop  offset="0" style="stop-color:#1A144C"/>
			<stop  offset="0.0931" style="stop-color:#1A1541"/>
			<stop  offset="0.2672" style="stop-color:#17152F"/>
			<stop  offset="0.4446" style="stop-color:#121120"/>
			<stop  offset="0.6243" style="stop-color:#0A0A11"/>
			<stop  offset="0.8075" style="stop-color:#040405"/>
			<stop  offset="1" style="stop-color:#010101"/>
		</radialGradient>
		<path class="st146" d="M154.4,496.56l-2.99,0.58l3.19,34.06l0,0c0.01,0.04,0.01,0.08,0.02,0.12c0.89,4.64,3.74,7.99,6.37,7.48
			c2.62-0.51,4.02-4.67,3.13-9.31c-0.01-0.04-0.02-0.08-0.02-0.12l0,0L154.4,496.56z"/>
		
			<radialGradient id="SVGID_125_" cx="14608.0967" cy="1164.9517" r="13.8115" gradientTransform="matrix(-0.3234 -0.0623 -0.1892 0.9819 5089.4419 284.0352)" gradientUnits="userSpaceOnUse">
			<stop  offset="0" style="stop-color:#982B74"/>
			<stop  offset="0.0674" style="stop-color:#832F67"/>
			<stop  offset="0.1943" style="stop-color:#622E50"/>
			<stop  offset="0.3242" style="stop-color:#47283C"/>
			<stop  offset="0.455" style="stop-color:#32202C"/>
			<stop  offset="0.587" style="stop-color:#21171E"/>
			<stop  offset="0.7206" style="stop-color:#120D10"/>
			<stop  offset="0.8569" style="stop-color:#050405"/>
			<stop  offset="1" style="stop-color:#010101"/>
		</radialGradient>
		<path class="st147" d="M147.32,496.56l2.99,0.58l-3.19,34.06l0,0c-0.01,0.04-0.01,0.08-0.02,0.12c-0.89,4.64-3.74,7.99-6.37,7.48
			c-2.62-0.51-4.02-4.67-3.13-9.31c0.01-0.04,0.02-0.08,0.02-0.12l0,0L147.32,496.56z"/>
	</g>
</g>
<g>
	<linearGradient id="SVGID_126_" gradientUnits="userSpaceOnUse" x1="519.3975" y1="263.1409" x2="477.3701" y2="167.6549">
		<stop  offset="0.0354" style="stop-color:#943895"/>
		<stop  offset="0.1552" style="stop-color:#9E4098"/>
		<stop  offset="0.3875" style="stop-color:#BB539F"/>
		<stop  offset="0.6313" style="stop-color:#E06EAA"/>
		<stop  offset="0.8737" style="stop-color:#C355A0"/>
	</linearGradient>
	<path class="st148" d="M499.93,170.47c-8.61-4.97-16.32-5.12-21.67-1.4l-6.19,2.89l0.76,3.97c-1.33,3.06-2.08,6.8-2.08,11.17
		c0,12.66,6.77,32.64,13.79,49.95l7.32,38.2l8.07-4.03c0,0,29.17-24.15,29.17-50.44C529.11,202.3,516.04,179.77,499.93,170.47z"/>
	<linearGradient id="SVGID_127_" gradientUnits="userSpaceOnUse" x1="445.4798" y1="253.0957" x2="527.1808" y2="186.5245">
		<stop  offset="0.0354" style="stop-color:#943895"/>
		<stop  offset="0.2294" style="stop-color:#9E4098"/>
		<stop  offset="0.6053" style="stop-color:#BB539F"/>
		<stop  offset="1" style="stop-color:#E06EAA"/>
	</linearGradient>
	<path class="st149" d="M521.04,224.82c0,26.29-29.17,50.44-29.17,50.44s-29.17-57.83-29.17-84.12c0-18.49,13.06-25.94,29.17-16.63
		C507.97,183.81,521.04,206.34,521.04,224.82z"/>
	<radialGradient id="SVGID_128_" cx="506.3889" cy="206.4148" r="41.1076" gradientUnits="userSpaceOnUse">
		<stop  offset="0" style="stop-color:#FFFFFF"/>
		<stop  offset="1" style="stop-color:#000000"/>
	</radialGradient>
	<path class="st150" d="M493.71,173.5c-8.42-4.86-15.98-5.11-21.3-1.64c5.16-2.33,11.97-1.67,19.45,2.65
		c16.11,9.3,29.17,31.83,29.17,50.32c0,22.53-21.41,43.47-27.54,49c0.13,0.25,0.21,0.43,0.21,0.43s29.17-24.15,29.17-50.44
		C522.89,205.33,509.82,182.8,493.71,173.5z"/>
	
		<linearGradient id="SVGID_129_" gradientUnits="userSpaceOnUse" x1="-48.5777" y1="2345.6406" x2="-67.4065" y2="2331.407" gradientTransform="matrix(0.866 0.5 0 1.1547 541.9537 -2463.5212)">
		<stop  offset="0.0354" style="stop-color:#9D9EB3"/>
		<stop  offset="0.5808" style="stop-color:#D4D2D9"/>
		<stop  offset="1" style="stop-color:#EEEBF0"/>
	</linearGradient>
	<path class="st151" d="M502.48,214.11c0,6.73-4.76,9.44-10.62,6.06c-5.87-3.39-10.62-11.59-10.62-18.32s4.76-9.44,10.62-6.06
		C497.73,199.18,502.48,207.38,502.48,214.11z"/>
	<path class="st82" d="M495.14,218.66c-5.87-3.39-10.62-11.59-10.62-18.32c0-2.67,0.75-4.69,2.02-5.96c-3.16,0.28-5.3,2.97-5.3,7.48
		c0,6.73,4.76,14.93,10.62,18.32c3.54,2.05,6.67,1.85,8.6-0.09C498.9,220.22,497.08,219.78,495.14,218.66z"/>
</g>
<g>
	<linearGradient id="SVGID_130_" gradientUnits="userSpaceOnUse" x1="616.6835" y1="366.9203" x2="563.8513" y2="337.7715">
		<stop  offset="0" style="stop-color:#FFFFFF"/>
		<stop  offset="1" style="stop-color:#000000"/>
	</linearGradient>
	<path class="st152" d="M621.2,349.59l-19.06-15.55v49.72C602.14,383.76,626.67,354.05,621.2,349.59z"/>
</g>
<radialGradient id="SVGID_131_" cx="623.9583" cy="-5443.4639" r="102.5301" gradientTransform="matrix(0.2984 -0.1514 0.189 0.3725 1349.972 2326.1174)" gradientUnits="userSpaceOnUse">
	<stop  offset="0" style="stop-color:#BA368F"/>
	<stop  offset="0.0889" style="stop-color:#953876"/>
	<stop  offset="0.2127" style="stop-color:#6D345A"/>
	<stop  offset="0.3397" style="stop-color:#4E2B42"/>
	<stop  offset="0.4676" style="stop-color:#36222F"/>
	<stop  offset="0.5966" style="stop-color:#23181F"/>
	<stop  offset="0.7271" style="stop-color:#130E11"/>
	<stop  offset="0.8602" style="stop-color:#060405"/>
	<stop  offset="1" style="stop-color:#010101"/>
</radialGradient>
<path class="st153" d="M537.94,188.44c10.7,21.09,5.69,45.14-11.21,53.72c-16.9,8.57-39.27-1.58-49.97-22.67
	c-10.7-21.09-5.69-45.14,11.21-53.72C504.86,157.19,527.23,167.34,537.94,188.44z"/>
</svg>
