<?xml version="1.0"?>
<svg xmlns="http://www.w3.org/2000/svg" xmlns:xlink="http://www.w3.org/1999/xlink" xmlns:svgjs="http://svgjs.com/svgjs" version="1.1" width="512" height="512" x="0" y="0" viewBox="0 0 24 24" style="enable-background:new 0 0 512 512" xml:space="preserve" class=""><g><path xmlns="http://www.w3.org/2000/svg" d="m12 23.45a11.45 11.45 0 1 1 11.45-11.45 11.45 11.45 0 0 1 -11.45 11.45zm0-21a9.55 9.55 0 1 0 9.55 9.55 9.57 9.57 0 0 0 -9.55-9.55z" fill="#ff6600" data-original="#000000" style="" class=""/><path xmlns="http://www.w3.org/2000/svg" d="m12 17.73a5.73 5.73 0 1 1 5.73-5.73 5.74 5.74 0 0 1 -5.73 5.73zm0-9.55a3.82 3.82 0 1 0 3.82 3.82 3.82 3.82 0 0 0 -3.82-3.82z" fill="#ff6600" data-original="#000000" style="" class=""/></g></svg>
